<?xml version="1.0" standalone="no"?>
<!DOCTYPE svg PUBLIC "-//W3C//DTD SVG 20010904//EN"
 "http://www.w3.org/TR/2001/REC-SVG-20010904/DTD/svg10.dtd">
<svg version="1.0" xmlns="http://www.w3.org/2000/svg"
 width="1063.000000pt" height="2372.000000pt" viewBox="0 0 1063.000000 2372.000000"
 preserveAspectRatio="xMidYMid meet">
<metadata>
Created by potrace 1.16, written by Peter Selinger 2001-2019
</metadata>
<g transform="translate(0.000000,2372.000000) scale(0.100000,-0.100000)"
fill="#000000" stroke="none">
<path d="M6011 18849 c-18 -11 -40 -18 -49 -14 -8 3 -25 -3 -36 -14 -15 -14
-41 -20 -96 -24 -49 -3 -89 -13 -115 -26 -21 -12 -54 -21 -71 -21 -23 0 -36
-7 -48 -25 -12 -19 -25 -25 -50 -25 -19 0 -36 -5 -38 -12 -4 -12 -11 -10 -58
17 -27 16 -19 21 40 28 19 3 -1 2 -44 0 -44 -3 -111 -13 -150 -23 -39 -10 -91
-21 -116 -24 -25 -4 -67 -17 -95 -28 -101 -44 -174 -79 -180 -87 -3 -5 -30
-23 -60 -40 -30 -17 -61 -40 -67 -52 -13 -21 -79 -55 -161 -83 -63 -21 -69
-20 -97 9 -26 27 -113 50 -154 39 -17 -4 -38 -24 -58 -55 -26 -38 -41 -51 -76
-61 -33 -10 -48 -21 -58 -43 -8 -16 -12 -23 -10 -14 8 30 -10 42 -70 43 -49 1
-67 -4 -106 -29 -29 -18 -52 -42 -59 -60 -6 -16 -13 -24 -16 -17 -6 17 -29 15
-61 -5 -49 -30 -63 -46 -51 -54 14 -8 -15 -42 -45 -53 -15 -5 -17 -9 -8 -18
26 -26 10 -31 -75 -25 -130 8 -173 -16 -173 -97 0 -34 -1 -35 -25 -24 -21 9
-28 8 -45 -7 -28 -25 -27 -48 3 -39 22 7 22 6 3 -14 -15 -18 -16 -24 -6 -37
16 -20 1 -19 -21 1 -14 13 -22 13 -39 4 -18 -10 -24 -9 -31 1 -11 18 -213 -81
-230 -113 -11 -21 -11 -22 4 -9 14 11 17 11 17 0 0 -8 -12 -23 -26 -34 -58
-45 -74 -64 -67 -81 4 -12 3 -15 -5 -10 -7 4 -12 1 -12 -8 0 -15 -12 -21 -33
-17 -5 1 -6 -3 -2 -9 9 -15 -22 -60 -41 -60 -11 0 -14 6 -9 23 7 20 6 21 -10
6 -13 -13 -15 -21 -6 -37 15 -28 14 -35 -3 -29 -15 6 -40 -46 -29 -57 13 -12
32 -6 27 9 -4 9 -1 15 7 15 8 0 25 17 39 37 24 35 25 36 28 13 3 -18 -8 -35
-43 -69 -32 -30 -51 -59 -61 -90 -18 -60 -18 -64 7 -56 18 6 20 4 14 -17 -4
-12 -11 -25 -15 -28 -3 -3 -9 -13 -13 -22 -3 -10 -12 -18 -20 -18 -18 0 -60
-58 -53 -75 2 -7 -3 -19 -11 -27 -15 -11 -16 -11 -10 5 6 15 4 16 -13 7 -11
-6 -20 -15 -20 -19 0 -5 -16 -16 -35 -25 -34 -16 -50 -46 -43 -79 3 -15 -65
-87 -83 -87 -5 0 -9 -8 -9 -17 -1 -28 -36 -64 -55 -57 -22 9 -67 -34 -60 -56
8 -26 -5 -50 -26 -50 -14 0 -19 -7 -19 -30 0 -21 -5 -30 -16 -30 -14 0 -15 -9
-9 -62 4 -35 16 -85 27 -112 10 -27 17 -51 14 -53 -3 -4 -18 20 -50 84 -13 27
-24 29 -33 6 -4 -10 -10 -20 -14 -23 -4 -3 -10 -25 -14 -50 -4 -25 -14 -50
-25 -57 -25 -18 -36 -98 -17 -127 10 -14 12 -28 7 -37 -7 -11 -10 -10 -16 4
-7 20 -30 22 -37 3 -3 -7 -9 -34 -12 -60 -5 -28 -12 -46 -21 -46 -22 0 -27
-20 -9 -40 14 -15 16 -28 10 -57 -5 -21 -8 -58 -7 -83 1 -24 -5 -73 -13 -108
-16 -67 -13 -84 12 -80 24 4 27 -19 3 -25 -30 -8 -25 -44 11 -77 28 -25 31
-33 25 -63 -8 -43 9 -91 29 -83 23 8 57 -42 44 -65 -5 -10 -14 -19 -19 -19 -6
0 -10 -10 -10 -23 0 -12 -7 -33 -16 -45 -8 -12 -12 -27 -9 -33 4 -5 4 -21 1
-35 -5 -20 -11 -23 -31 -18 -22 5 -25 3 -25 -18 0 -14 11 -45 23 -71 15 -29
22 -57 19 -76 -3 -22 1 -32 17 -41 19 -10 21 -18 18 -71 -2 -33 -8 -64 -14
-67 -6 -4 -11 -38 -11 -77 0 -55 6 -83 28 -130 24 -53 27 -73 29 -172 1 -68
-3 -121 -9 -134 -9 -16 -8 -32 4 -69 9 -27 16 -68 16 -92 0 -24 7 -56 16 -73
31 -58 54 -138 54 -189 1 -62 8 -94 54 -215 19 -52 40 -125 47 -163 7 -37 15
-68 19 -68 3 0 7 -50 8 -112 1 -62 7 -117 12 -122 7 -7 10 -2 10 15 1 13 14
58 30 99 17 41 30 78 30 82 0 18 68 154 83 166 9 8 24 12 34 10 15 -3 18 -14
19 -66 1 -34 -2 -65 -7 -68 -5 -3 -9 -16 -9 -28 0 -13 -7 -29 -15 -36 -9 -7
-14 -19 -11 -27 3 -7 -1 -30 -8 -51 -8 -20 -19 -75 -26 -122 -15 -108 2 -186
49 -226 l31 -26 -6 -286 c-3 -158 -5 -300 -5 -315 1 -16 -3 -46 -9 -67 -10
-37 -12 -39 -43 -34 -35 5 -37 9 25 -38 24 -18 28 -79 18 -256 -6 -107 -4
-178 5 -262 18 -149 26 -192 76 -425 6 -27 23 -75 37 -105 14 -30 31 -83 39
-118 7 -35 26 -91 42 -125 16 -34 52 -118 80 -187 28 -69 76 -172 106 -230
l54 -105 -6 -274 -6 -273 -31 -19 c-17 -10 -42 -19 -54 -19 -13 0 -58 -18
-100 -39 -43 -22 -94 -46 -115 -55 -20 -8 -59 -33 -85 -54 -56 -48 -104 -72
-217 -113 -47 -17 -92 -37 -99 -44 -26 -26 -148 -85 -176 -85 -22 0 -29 5 -32
21 -2 12 -16 31 -31 43 -25 18 -41 21 -113 19 -81 -2 -85 -3 -130 -40 l-46
-38 7 -55 c11 -87 12 -131 3 -136 -4 -3 -8 0 -8 5 0 6 -11 11 -24 11 -22 0
-25 5 -31 48 -8 62 -23 131 -36 164 -10 24 -17 28 -53 27 -36 -1 -93 -20 -148
-50 -10 -5 -38 -9 -63 -9 -25 0 -45 -4 -45 -10 0 -5 -11 -10 -25 -10 -14 0
-38 -11 -53 -25 -15 -14 -35 -25 -44 -25 -11 0 -18 -8 -18 -20 0 -11 -4 -20
-10 -20 -5 0 -10 -6 -10 -14 0 -8 -15 -23 -33 -34 -30 -17 -38 -18 -64 -7 -35
15 -45 38 -47 108 -1 27 -7 52 -14 56 -7 4 -13 31 -15 61 -2 49 0 53 21 55 27
2 109 81 117 113 3 14 13 22 26 22 11 0 31 11 45 25 l26 26 -25 19 c-25 20
-59 18 -87 -5 -14 -12 -55 -30 -150 -66 -19 -8 -37 -14 -40 -14 -3 -1 -15 -4
-26 -8 -31 -11 -74 8 -74 32 0 11 5 23 10 26 26 16 6 35 -57 55 -79 24 -97 35
-159 95 -44 41 -135 94 -172 99 -9 2 -27 21 -40 44 -13 23 -28 42 -33 42 -5 0
-9 10 -9 23 -1 53 -163 126 -194 86 -8 -11 -45 -14 -153 -15 -78 -1 -158 -5
-178 -8 l-35 -7 0 -1203 c0 -957 3 -1204 12 -1203 39 1 60 -5 78 -23 11 -11
20 -24 20 -29 0 -14 -64 -51 -89 -51 l-21 0 0 -3845 0 -3845 5315 0 5315 0 0
3161 c0 3153 0 3161 -20 3166 -11 3 -32 27 -47 54 -28 52 -84 89 -136 89 -38
0 -74 16 -120 54 -23 18 -57 42 -76 52 -61 34 -71 41 -94 61 -12 11 -49 37
-82 58 -33 21 -62 41 -65 45 -3 3 -16 11 -30 18 -14 7 -45 26 -70 42 -25 16
-52 33 -60 36 -51 23 -80 37 -115 59 -22 13 -56 33 -75 45 -51 30 -72 43 -105
66 -16 12 -40 24 -51 28 -12 3 -29 15 -39 26 -10 11 -26 20 -35 20 -9 0 -25 8
-36 18 -10 9 -31 23 -46 29 -16 7 -28 17 -28 23 0 5 -12 16 -27 24 -16 8 -46
32 -68 53 -36 34 -124 99 -176 129 -10 6 -27 18 -37 27 -10 10 -22 17 -26 17
-9 0 -96 59 -111 76 -5 6 -21 18 -35 27 -14 9 -43 30 -65 46 -22 17 -53 36
-70 44 -16 8 -36 21 -44 30 -7 10 -22 17 -32 17 -10 0 -21 5 -24 11 -4 5 -41
26 -83 45 -43 19 -86 40 -97 46 -11 7 -33 19 -50 28 -72 38 -160 98 -213 146
-21 19 -57 44 -78 56 -21 11 -61 32 -88 47 -27 14 -65 34 -85 45 -20 10 -56
40 -81 67 -44 48 -46 49 -77 38 -28 -9 -38 -8 -70 12 -21 13 -49 37 -62 52
-33 39 -43 49 -76 72 -93 67 -144 160 -185 340 -13 55 -34 130 -46 167 -35
103 -74 161 -74 108 0 -35 -17 -22 -57 42 -61 100 -83 163 -83 235 0 69 -15
87 -52 64 -20 -12 -28 3 -108 186 -11 26 -51 109 -88 183 -81 163 -96 172
-122 70 -49 -189 -64 -239 -94 -300 -45 -90 -127 -209 -165 -240 -18 -14 -54
-46 -82 -71 -28 -26 -63 -53 -78 -60 -14 -7 -38 -21 -52 -31 -15 -10 -45 -20
-69 -23 -23 -3 -45 -7 -49 -9 -4 -3 -13 -1 -21 4 -20 12 0 32 34 33 33 2 34
13 2 21 -35 9 -56 -3 -56 -30 0 -17 -4 -22 -15 -18 -8 3 -28 1 -45 -4 -35 -13
-39 -4 -10 21 11 9 20 21 20 27 0 12 -32 13 -45 1 -14 -12 -68 -24 -61 -12 3
5 3 23 0 39 -5 22 -11 29 -23 26 -9 -3 -5 1 9 8 14 7 29 18 33 25 10 17 25 16
42 -1 12 -12 12 -15 -2 -20 -9 -4 -13 -9 -10 -12 11 -12 42 22 42 46 0 16 7
26 20 30 26 7 70 38 64 45 -3 3 -19 -2 -36 -10 -22 -11 -37 -13 -54 -6 -18 7
-19 10 -6 10 21 1 23 17 2 25 -8 3 -15 10 -15 16 0 6 13 2 29 -9 16 -12 31
-21 34 -21 10 0 14 39 4 43 -12 4 -1 27 14 27 5 0 9 -9 9 -21 0 -11 5 -17 10
-14 6 3 10 15 10 26 0 14 4 18 13 12 6 -4 25 -8 42 -8 22 0 33 -7 43 -27 18
-39 33 -35 29 7 -5 42 -15 55 -27 36 -5 -10 -8 -6 -7 12 2 17 7 25 19 24 9 -1
15 -4 12 -8 -2 -4 -2 -14 2 -22 7 -18 44 -11 44 9 0 7 17 21 38 31 20 9 40 21
44 27 10 15 -3 29 -15 17 -16 -16 -37 -13 -37 5 0 10 6 13 19 9 12 -3 21 0 25
10 8 22 25 19 19 -4 -3 -10 0 -22 5 -25 13 -8 42 3 42 16 0 5 -4 7 -9 3 -5 -3
-12 -1 -15 3 -3 5 10 17 28 27 21 12 32 24 29 32 -3 8 4 21 16 29 11 8 21 24
21 34 0 13 5 17 15 14 8 -3 26 4 41 15 15 12 21 21 15 21 -8 0 -10 11 -5 35 5
29 2 38 -16 53 -14 11 -20 24 -16 31 6 9 11 9 21 1 9 -8 15 -8 20 0 3 5 3 10
-1 10 -8 0 66 60 75 60 3 0 40 32 81 70 41 38 82 70 91 70 8 0 23 17 32 38 9
20 59 79 112 131 52 52 128 137 167 190 40 53 76 97 80 99 4 2 8 9 8 15 0 6
17 31 38 56 21 25 60 80 88 121 27 41 53 80 57 85 4 6 27 51 51 100 42 86 117
183 137 177 5 -1 19 2 29 8 16 9 20 21 20 62 0 28 6 58 13 67 8 9 24 43 37 76
13 33 49 113 82 178 60 122 65 137 48 137 -6 0 -25 -31 -43 -70 -28 -60 -34
-67 -44 -52 -11 16 -12 16 -12 0 -1 -10 -9 -18 -18 -19 -12 0 -13 -2 -5 -6 18
-7 -4 -33 -29 -33 -11 0 -19 -5 -19 -11 0 -5 4 -8 9 -4 5 3 12 1 16 -5 4 -6
12 -4 22 5 8 9 18 13 22 10 7 -8 -28 -35 -46 -35 -7 0 -13 -5 -13 -11 0 -6 -7
-9 -15 -5 -15 5 -22 -18 -7 -27 4 -2 1 -2 -7 0 -8 2 -18 -2 -23 -9 -6 -10 -10
-7 -14 10 -9 30 -27 28 -22 -3 7 -32 -9 -43 -27 -19 -8 11 -15 14 -15 7 0 -6
-3 -19 -7 -29 -4 -12 -3 -15 5 -10 7 4 12 1 12 -8 0 -9 6 -16 13 -16 8 -1 7
-5 -4 -13 -9 -7 -18 -18 -21 -26 -3 -12 -9 -10 -26 7 -27 27 -32 27 -25 2 3
-11 9 -20 14 -20 5 0 9 -9 9 -19 0 -11 6 -21 13 -24 6 -3 2 -4 -10 -4 -13 1
-23 7 -23 13 0 7 -7 14 -15 18 -18 6 -21 -24 -4 -41 7 -7 6 -12 -5 -16 -10 -4
-17 3 -21 25 -5 19 -10 26 -15 18 -5 -8 -9 -8 -13 4 -4 9 -11 16 -17 16 -15 0
-12 -31 6 -51 15 -16 14 -17 -8 -12 -21 6 -22 5 -8 -12 11 -14 6 -12 -19 5
-18 14 -39 29 -47 35 -9 6 -18 5 -26 -3 -11 -11 -9 -12 7 -6 17 7 18 6 7 -8
-10 -13 -11 -22 -2 -37 6 -12 13 -21 16 -21 2 0 0 10 -7 21 -8 15 -8 19 0 15
6 -4 11 -2 11 4 0 6 5 8 11 4 8 -5 8 -9 -1 -14 -7 -4 -10 -12 -6 -18 9 -15
-13 -27 -26 -14 -6 6 -17 8 -24 5 -9 -3 -14 2 -15 13 0 11 -3 13 -6 7 -2 -7 2
-26 10 -43 12 -23 12 -30 3 -30 -7 0 -18 11 -23 23 -15 32 -39 30 -40 -2 -2
-25 -2 -25 7 -3 13 32 17 28 18 -23 1 -27 -2 -45 -9 -45 -7 0 -9 -9 -5 -24 3
-14 2 -27 -3 -31 -5 -3 -11 7 -13 22 -2 19 -8 27 -19 25 -9 -1 -19 4 -23 13
-3 8 -11 15 -19 15 -7 0 -21 15 -30 33 -13 25 -16 26 -11 7 4 -14 8 -30 11
-35 2 -6 -6 -20 -17 -32 -11 -12 -20 -29 -20 -38 0 -8 -7 -15 -16 -15 -12 0
-15 -6 -10 -26 5 -17 3 -23 -4 -19 -5 3 -10 0 -11 -7 0 -7 -4 -4 -9 7 -7 19
-8 19 -15 1 -5 -11 -3 -21 4 -26 10 -5 9 -9 -3 -13 -9 -4 -16 -1 -16 5 0 9 -3
9 -12 0 -10 -10 -10 -15 2 -22 9 -6 19 -5 24 0 19 19 29 10 11 -10 -13 -15
-22 -17 -36 -9 -24 13 -38 -14 -19 -36 11 -13 10 -14 -4 -9 -14 6 -16 2 -10
-22 4 -16 12 -32 18 -36 8 -5 7 -8 -1 -8 -7 0 -17 9 -23 20 -6 11 -15 18 -21
15 -5 -4 -9 -1 -9 4 0 6 -3 11 -8 11 -10 0 -8 -81 2 -98 4 -7 3 -12 -2 -12 -5
0 -8 -12 -7 -27 2 -17 1 -20 -2 -6 -3 17 -10 21 -31 19 -15 -2 -26 -7 -24 -12
2 -5 10 -8 18 -6 8 2 14 -5 14 -15 0 -10 -4 -14 -8 -8 -4 6 -13 11 -21 13 -11
2 -13 -7 -9 -43 7 -57 1 -58 -13 -2 -6 24 -19 48 -28 54 -17 11 -17 9 1 -28
10 -22 17 -46 14 -52 -3 -9 -5 -9 -5 1 -1 6 -6 12 -12 12 -5 0 -8 -4 -5 -9 4
-5 1 -11 -6 -13 -7 -3 -8 -10 -4 -17 7 -11 10 -11 17 0 6 10 9 8 9 -8 0 -12
-8 -23 -17 -26 -17 -4 -17 -5 0 -6 20 -1 24 -21 3 -21 -7 0 -21 10 -29 23 -11
16 -16 18 -16 7 -1 -9 7 -26 16 -39 10 -15 11 -21 3 -16 -10 6 -12 1 -7 -21 3
-16 4 -23 1 -16 -3 6 -10 12 -15 12 -6 0 -6 -8 1 -19 16 -31 12 -36 -12 -15
-13 10 -18 12 -12 4 6 -8 14 -24 18 -35 5 -16 2 -15 -14 5 l-20 25 6 -32 c7
-34 -1 -39 -44 -34 -10 2 -11 -2 -3 -18 16 -29 13 -48 -4 -25 -14 18 -14 18
-15 -7 0 -14 -7 -34 -15 -45 -15 -19 -16 -19 -31 4 -9 12 -19 22 -23 22 -10 0
-8 -47 2 -56 4 -5 5 0 1 11 -5 15 -4 17 5 9 8 -8 9 -18 2 -36 -5 -14 -7 -29
-4 -32 4 -3 1 -6 -6 -6 -7 0 -11 7 -8 15 5 12 2 12 -18 3 -23 -10 -23 -11 -7
-36 16 -25 16 -26 -1 -19 -10 4 -17 2 -17 -6 0 -7 -10 2 -21 18 -12 17 -18 21
-14 10 14 -38 10 -47 -17 -50 -18 -2 -32 3 -40 14 -7 9 -20 21 -28 26 -11 7
-11 3 3 -18 15 -24 16 -30 4 -42 -8 -8 -18 -11 -22 -7 -4 4 -3 -3 4 -15 19
-36 13 -38 -20 -4 -17 18 -34 30 -37 26 -4 -4 1 -12 11 -19 21 -16 22 -46 1
-46 -8 0 -13 4 -9 9 6 11 -33 26 -42 17 -4 -3 0 -17 7 -31 18 -33 7 -42 -19
-16 -39 39 -51 18 -26 -41 11 -28 -9 -21 -27 10 -13 20 -18 22 -18 10 0 -21
-16 -24 -24 -5 -3 6 -4 0 -1 -15 3 -14 1 -37 -4 -50 -8 -22 -9 -22 -15 10 -4
17 -12 32 -18 32 -5 0 -8 -6 -5 -12 2 -7 0 -21 -5 -31 -8 -16 -10 -16 -30 3
-27 25 -43 26 -33 3 18 -45 18 -54 -1 -46 -11 4 -28 15 -39 26 -18 17 -20 17
-23 1 -5 -21 18 -65 29 -58 5 3 6 -2 2 -12 -5 -14 -7 -14 -15 -1 -4 9 -22 23
-39 31 l-31 16 7 -38 c4 -23 3 -33 -3 -27 -15 16 -23 63 -11 70 7 5 5 15 -6
31 -9 14 -14 28 -11 33 3 4 -10 26 -29 47 -23 26 -35 33 -35 23 0 -9 10 -24
23 -32 19 -14 20 -18 7 -28 -13 -9 -13 -10 2 -5 12 3 15 1 11 -10 -3 -7 0 -14
6 -14 7 0 11 -14 10 -32 -1 -18 1 -44 6 -58 l7 -25 -21 24 c-11 13 -21 33 -22
45 0 12 -3 15 -6 9 -8 -21 -22 -15 -16 7 4 14 0 20 -12 20 -13 0 -16 -6 -13
-25 3 -14 1 -22 -5 -18 -5 3 -7 26 -4 52 3 31 0 55 -11 76 -9 16 -15 39 -14
50 1 16 0 16 -8 -4 -7 -16 -7 -28 0 -36 9 -11 6 -72 -4 -83 -6 -6 -10 29 -8
61 1 10 -3 15 -8 12 -6 -3 -10 1 -10 10 0 10 -5 13 -12 9 -10 -6 -10 -5 -1 8
11 12 9 18 -7 33 -11 10 -20 24 -20 30 0 7 -7 16 -15 19 -14 5 -14 3 -1 -15 8
-12 12 -28 9 -35 -3 -8 0 -14 6 -14 14 0 15 -47 1 -55 -6 -3 -10 -2 -10 3 0 5
-8 27 -17 48 -22 50 -25 84 -10 103 10 11 9 13 -3 9 -8 -2 -25 7 -38 21 -25
28 -25 28 -7 -38 3 -11 2 -22 -4 -25 -22 -14 -40 8 -51 59 -8 37 -15 52 -24
49 -7 -3 -18 2 -25 10 -10 12 -18 13 -33 5 -10 -6 -17 -16 -15 -22 5 -13 -32
-92 -39 -85 -2 3 4 37 14 76 18 71 18 72 -1 72 -11 0 -21 9 -24 21 -3 11 -11
18 -19 15 -8 -3 -12 2 -11 13 1 13 7 17 22 14 19 -4 19 -4 -3 15 -17 16 -20
25 -13 43 l8 24 8 -24 c4 -14 20 -35 36 -48 15 -13 31 -33 34 -43 4 -11 11
-20 17 -20 6 0 5 6 -3 16 -10 12 -10 17 0 23 9 6 8 11 -4 21 -13 11 -15 10 -9
-6 10 -28 -6 -9 -54 64 -45 66 -47 80 -6 35 23 -26 23 -24 -6 28 -16 31 -30
62 -30 70 1 8 9 -3 19 -23 10 -20 28 -49 40 -64 12 -15 21 -31 21 -36 0 -19
42 -68 57 -68 9 0 26 -8 37 -18 21 -17 21 -17 4 4 -10 11 -18 26 -18 33 0 7
-6 11 -14 8 -9 -4 -16 3 -20 19 -4 14 -10 23 -15 20 -4 -3 -17 7 -28 22 -31
43 -33 49 -18 49 8 0 15 -8 15 -17 0 -10 7 -23 15 -30 25 -21 19 17 -11 67
-20 35 -23 47 -14 58 11 14 9 49 -6 103 -2 9 5 -1 16 -23 l19 -40 2 35 1 35 9
-32 c15 -50 33 -54 26 -5 -8 44 5 64 22 35 10 -17 10 -17 11 1 0 23 15 11 24
-19 3 -11 4 9 1 45 l-4 65 20 -25 c15 -18 18 -19 11 -5 -5 11 -7 26 -5 33 8
20 23 3 23 -26 0 -15 5 -34 10 -42 6 -10 8 -2 7 28 -2 24 2 46 7 49 5 3 6 1 3
-4 -7 -11 14 -23 36 -23 7 1 6 5 -3 13 -16 13 -50 62 -50 73 0 3 9 -4 20 -17
14 -17 20 -20 20 -9 1 8 6 4 12 -10 7 -17 12 -21 16 -11 6 16 -26 81 -41 81
-5 0 -7 -6 -4 -14 4 -10 0 -12 -14 -9 -12 4 -18 11 -15 20 3 8 1 11 -4 8 -21
-13 -199 -16 -275 -5 -133 19 -149 21 -170 25 -11 3 -42 9 -70 14 -65 12 -177
41 -190 49 -5 4 -17 8 -27 9 -9 1 -32 12 -52 24 -40 23 -70 20 -59 -7 5 -13 3
-15 -7 -9 -10 6 -12 4 -7 -9 4 -10 3 -15 -3 -11 -6 3 -10 -1 -10 -9 0 -15 -37
-33 -47 -23 -3 3 0 14 6 24 7 12 10 13 11 4 0 -11 3 -11 15 -1 22 19 18 27
-14 27 -23 0 -27 -4 -23 -20 4 -17 1 -19 -17 -14 -22 5 -22 5 -6 -13 10 -11
15 -26 12 -35 -4 -9 -1 -15 8 -15 18 0 19 -12 3 -28 -10 -10 -10 -15 2 -22 21
-14 30 -12 30 5 0 8 5 15 10 15 17 0 11 -38 -8 -49 -15 -9 -14 -10 7 -11 20 0
22 -4 17 -25 -5 -20 -3 -25 13 -25 11 0 21 6 24 13 2 6 7 9 11 6 11 -10 -6
-40 -20 -35 -7 3 -16 1 -19 -5 -4 -5 -11 -6 -17 -3 -7 5 -8 2 -4 -5 5 -7 0
-18 -10 -26 -29 -22 -8 -17 46 10 48 24 80 34 51 16 -8 -5 -15 -18 -16 -28 0
-10 -5 -24 -9 -32 -7 -10 -4 -11 13 -2 17 10 21 9 21 -3 0 -8 -4 -17 -8 -20
-9 -6 -1 -70 16 -124 6 -19 7 -30 1 -27 -5 4 -9 -7 -9 -22 0 -39 -20 -65 -52
-66 -14 -1 -24 -5 -21 -10 4 -7 -20 -37 -30 -37 -3 0 -4 23 -3 50 2 51 -7 66
-19 30 -3 -11 -9 -19 -13 -18 -16 5 -66 -38 -78 -67 -10 -24 -14 -27 -19 -13
-6 16 -9 16 -31 2 -27 -19 -59 -11 -50 11 8 22 1 19 -30 -12 -24 -24 -28 -25
-39 -10 -7 9 -16 17 -21 17 -4 0 -3 -5 4 -12 15 -15 16 -52 2 -43 -6 4 -20 -5
-32 -20 -16 -21 -23 -24 -29 -13 -6 9 -9 7 -9 -8 0 -11 -9 -29 -20 -39 -20
-18 -21 -18 -14 1 4 10 11 24 16 30 5 7 2 16 -7 24 -13 10 -15 9 -15 -8 0 -20
-54 -57 -70 -47 -10 6 -5 47 10 76 9 17 2 14 -25 -13 -41 -43 -51 -48 -35 -18
7 13 7 20 1 20 -6 0 -7 7 -4 17 10 26 -15 6 -39 -31 -18 -28 -19 -23 -1 21 4
11 3 14 -5 9 -7 -4 -12 -4 -12 1 0 4 21 21 47 36 25 15 43 31 39 34 -3 4 -12
1 -18 -5 -7 -7 -22 -12 -35 -12 -13 0 -23 -5 -23 -11 0 -5 -4 -8 -10 -4 -5 3
-14 -13 -20 -35 -6 -24 -17 -40 -26 -40 -11 0 -12 4 -4 19 15 30 12 45 -6 27
-21 -22 -30 -20 -52 12 -15 21 -17 31 -9 44 17 25 2 32 -27 12 l-27 -17 11 27
c14 39 13 41 -12 20 l-23 -19 21 25 c12 14 25 32 29 40 8 13 7 13 -11 0 -10
-8 -29 -23 -42 -34 l-22 -20 4 25 c2 13 5 24 6 24 1 0 3 8 5 17 4 21 23 42 48
51 9 3 17 11 17 17 0 17 -37 -7 -94 -59 -28 -25 -43 -37 -33 -25 9 11 17 26
17 32 0 7 4 12 10 12 5 0 9 10 7 23 -1 14 3 21 11 19 8 -1 11 2 7 8 -8 14 -21
13 -37 -3 -25 -25 -56 -38 -63 -26 -4 6 -4 13 -1 16 3 4 6 2 6 -4 0 -6 18 7
40 29 22 22 40 42 40 44 0 11 -43 -5 -79 -29 -46 -30 -82 -38 -61 -12 7 8 18
15 24 15 16 0 56 42 56 58 0 7 -4 12 -10 12 -5 0 -10 -6 -10 -14 0 -9 -8 -12
-24 -9 -13 3 -27 0 -30 -6 -11 -17 -22 -13 -23 9 -2 20 29 36 47 25 6 -4 10
-3 9 2 -4 22 3 33 20 33 17 0 141 76 141 86 0 3 -47 -20 -105 -50 -58 -30
-103 -51 -100 -46 11 17 -11 11 -35 -10 -13 -11 -30 -20 -38 -20 -20 0 -15 4
49 45 30 19 49 35 44 35 -6 0 -17 -6 -23 -12 -10 -10 -15 -10 -23 2 -8 13 -11
13 -23 -2 -17 -23 -26 -23 -26 1 0 22 -16 36 -24 22 -4 -5 0 -11 6 -14 7 -2 0
-4 -17 -4 -16 0 -25 2 -18 4 7 2 9 11 6 19 -3 8 0 14 7 14 6 0 9 4 5 10 -3 5
-11 7 -18 4 -7 -2 -21 4 -31 15 -17 18 -16 20 5 40 12 11 26 18 31 15 4 -3 8
2 8 10 0 9 5 16 10 16 6 0 10 4 10 9 0 16 -50 -15 -85 -53 -36 -40 -55 -48
-31 -14 18 26 21 42 6 33 -6 -4 -17 -1 -26 5 -12 11 -12 14 3 26 10 7 23 13
28 13 6 0 1 -6 -9 -14 -11 -8 -15 -15 -10 -15 18 0 34 24 33 49 0 15 -3 20 -6
13 -4 -10 -8 -9 -19 5 -13 17 -13 17 -14 -3 0 -12 -6 -24 -13 -27 -17 -6 -16
26 2 47 11 13 11 17 -2 22 -22 8 -28 31 -11 38 9 3 12 1 9 -4 -9 -14 29 -12
43 2 7 7 12 18 12 26 0 12 -3 12 -15 2 -9 -7 -18 -10 -21 -7 -11 10 6 25 35
32 17 4 31 14 34 26 4 16 2 19 -11 14 -9 -4 -29 -8 -44 -10 -20 -3 -26 0 -21
11 3 7 10 14 17 14 6 0 4 5 -4 10 -10 7 -11 10 -2 10 7 0 15 -6 18 -14 5 -14
39 -11 61 6 18 14 22 -15 5 -34 -18 -21 -2 -24 30 -7 l20 11 -21 19 c-12 11
-19 24 -16 30 4 5 -3 5 -19 0 -18 -7 -28 -6 -36 4 -6 8 -18 11 -26 8 -8 -3
-14 0 -14 5 0 14 15 23 24 14 17 -16 66 -9 87 14 23 25 20 45 -4 26 -8 -7 -17
-9 -20 -5 -4 3 -7 -1 -7 -11 0 -9 -5 -14 -10 -11 -6 4 -7 11 -4 17 5 8 1 9
-10 5 -10 -4 -20 -7 -22 -7 -3 0 -2 -5 2 -12 4 -7 3 -8 -4 -4 -17 10 -15 26 3
26 8 0 15 5 15 11 0 5 9 9 19 7 13 -2 27 9 43 31 13 19 26 33 29 30 11 -7 49
33 49 50 0 9 -3 12 -8 6 -4 -5 -12 -10 -19 -10 -6 0 -24 -11 -40 -25 -15 -14
-50 -43 -78 -65 -27 -22 -53 -44 -57 -50 -5 -6 -8 -6 -8 1 0 6 25 35 55 65 51
50 68 79 45 79 -5 0 -7 7 -4 15 5 11 2 14 -12 9 -11 -4 -24 -11 -30 -16 -7 -5
-14 -3 -18 7 -3 9 -2 14 3 11 5 -3 11 1 15 9 3 8 16 15 28 15 13 0 30 6 39 13
13 10 14 14 3 24 -10 10 -16 10 -28 -2 -8 -8 -19 -15 -24 -15 -17 0 -20 24 -5
35 18 13 7 68 -17 83 -14 8 -22 7 -36 -4 -14 -11 -15 -14 -4 -13 39 4 50 -2
50 -25 0 -26 -25 -43 -34 -23 -5 9 -7 9 -12 0 -9 -19 -51 -16 -59 5 -5 14 -4
15 6 5 18 -18 34 -16 20 1 -7 8 -8 16 -2 18 5 1 11 12 13 23 3 18 34 50 50 50
16 0 17 13 3 25 -14 11 -17 10 -22 -8 -6 -24 -19 -29 -25 -11 -5 16 -61 2 -88
-21 -12 -10 -28 -16 -36 -13 -8 3 -14 -1 -14 -11 0 -9 -4 -16 -10 -16 -15 0
-12 6 13 33 12 13 27 22 34 20 6 -2 23 9 37 24 25 27 35 50 17 39 -4 -3 -17 1
-27 8 -18 14 -18 15 6 34 14 11 36 29 50 41 l25 22 -25 -13 c-14 -7 -33 -19
-42 -27 -12 -10 -18 -10 -18 -3 0 7 -7 12 -15 12 -8 0 -12 -6 -10 -13 3 -6 -4
-18 -15 -25 -19 -11 -20 -10 -15 34 2 26 6 49 9 52 4 3 -1 13 -10 23 -15 16
-14 20 10 46 26 28 33 43 19 43 -5 0 -15 -13 -25 -29 -12 -22 -21 -28 -37 -24
-26 7 -29 -15 -3 -24 34 -13 40 -27 18 -48 -12 -11 -18 -16 -13 -11 10 13 9
36 -2 36 -4 0 -15 -24 -22 -52 -12 -42 -16 -48 -21 -31 -3 12 0 33 8 47 8 17
9 26 2 26 -6 0 -8 11 -5 26 3 19 1 24 -10 20 -9 -4 -13 -1 -10 6 2 7 9 12 15
11 16 -4 22 25 6 31 -8 3 -14 13 -14 23 0 10 -9 24 -20 31 -21 13 -28 42 -10
42 6 0 10 6 10 13 0 7 16 21 35 31 35 19 51 44 18 27 -53 -27 -72 -33 -84 -26
-7 5 -10 4 -5 -3 3 -6 1 -14 -6 -18 -7 -4 -10 -4 -6 1 9 10 -10 35 -26 35 -6
0 -4 -4 3 -9 12 -8 10 -12 -12 -22 -24 -11 -32 -26 -28 -51 0 -5 -3 -8 -9 -8
-17 0 -11 38 8 57 27 28 45 74 32 87 -7 7 -10 5 -10 -6 0 -8 -9 -27 -20 -41
-23 -29 -55 -26 -47 4 5 20 -7 26 -18 9 -17 -27 -22 -4 -10 45 11 49 6 72 -10
45 -3 -5 -10 -10 -16 -10 -15 0 -10 19 10 37 11 9 17 21 14 26 -3 5 -9 3 -14
-4 -7 -11 -9 -10 -9 4 0 9 -4 17 -10 17 -5 0 -10 7 -10 15 0 8 -6 15 -14 15
-7 0 -19 -7 -26 -15 -14 -17 -30 -20 -30 -4 0 5 5 7 11 4 6 -4 9 0 7 11 -2 12
6 23 20 29 12 5 22 15 22 22 0 20 -24 15 -38 -7 -7 -11 -18 -20 -25 -20 -8 0
-7 3 3 10 8 5 11 12 7 16 -4 4 -13 2 -19 -4 -7 -7 -17 -12 -23 -12 -5 1 1 9
13 20 22 18 22 21 8 35 -12 12 -20 13 -35 5 -11 -5 -26 -10 -33 -9 -7 0 -3 4
10 9 12 5 22 14 22 20 0 14 -17 13 -23 -2 -2 -7 -8 -9 -13 -5 -5 5 -1 14 9 22
12 8 14 15 8 20 -8 4 -8 12 0 27 9 16 8 19 -3 16 -7 -3 -19 -15 -26 -29 l-13
-24 2 25 c3 47 -1 70 -11 70 -5 0 -10 -6 -10 -13 0 -7 -7 -22 -15 -33 -13 -17
-14 -14 -9 37 6 52 5 56 -21 73 l-27 18 6 207 c4 113 9 215 11 226 3 11 7 61
10 110 3 50 9 146 14 215 5 69 10 188 10 264 2 187 40 453 87 606 159 514 182
569 278 666 23 22 52 63 65 90 32 66 52 88 63 72 6 -9 7 -5 3 9 -4 16 0 25 15
33 11 6 18 16 14 21 -7 11 19 39 54 58 13 7 19 17 16 26 -4 11 -2 13 9 10 14
-6 30 16 31 44 1 8 7 16 14 19 8 2 10 -3 6 -15 -5 -14 -4 -15 4 -3 9 12 14 12
31 -4 12 -11 21 -14 21 -9 0 6 -9 17 -19 24 -14 10 -17 19 -11 34 8 19 9 19 9
1 1 -13 6 -17 21 -13 11 3 20 0 20 -6 0 -6 3 -7 7 -3 5 4 0 14 -10 21 -18 13
-17 13 2 20 11 3 29 1 41 -5 11 -6 20 -7 20 -1 0 5 14 11 30 13 30 4 40 -5 20
-17 -8 -5 -8 -11 0 -20 6 -7 8 -20 4 -29 -4 -9 -1 -16 6 -16 6 0 14 9 17 19 8
30 29 32 53 6 18 -19 20 -26 9 -29 -8 -3 -34 -12 -59 -20 l-45 -16 40 2 c22 1
43 7 47 13 5 6 12 5 20 -3 10 -10 10 -15 -2 -22 -8 -5 -10 -10 -5 -10 19 0 40
20 30 28 -5 4 -10 24 -11 46 0 32 1 36 11 22 16 -21 22 -20 28 4 3 11 12 20
21 20 23 0 20 -7 -16 -39 -18 -16 -30 -32 -27 -35 7 -7 70 23 80 38 9 11 31
-3 24 -15 -4 -5 -2 -9 4 -9 5 0 12 4 15 9 3 5 15 7 26 4 16 -4 19 -2 14 11 -7
18 -20 21 -29 6 -7 -12 -32 -3 -39 15 -3 9 0 12 8 9 7 -3 24 0 39 5 21 8 25 7
21 -4 -6 -13 40 -65 57 -65 4 0 10 8 13 18 5 14 13 17 39 14 l32 -5 -27 -9
c-16 -6 -28 -14 -28 -18 0 -12 58 -4 74 9 9 7 16 7 24 -1 9 -9 12 -8 12 4 0 9
7 19 16 22 23 9 29 0 14 -19 -12 -14 -8 -15 33 -11 41 3 45 2 32 -11 -23 -23
-18 -27 11 -8 17 11 35 14 52 10 21 -5 23 -4 14 8 -17 20 -3 28 22 12 14 -10
26 -11 36 -5 11 7 8 10 -15 11 -16 0 -25 3 -18 5 7 3 9 12 6 20 -5 14 8 20 20
8 8 -8 127 -11 127 -3 0 12 49 28 55 19 4 -6 -1 -10 -10 -10 -9 0 -13 -5 -10
-10 5 -8 11 -8 19 0 7 5 34 12 60 14 38 4 46 2 47 -12 0 -11 2 -12 6 -4 2 6 9
10 14 6 5 -3 9 2 9 10 0 10 10 14 30 14 20 -1 30 -6 30 -17 0 -11 4 -9 16 7 8
12 12 27 9 32 -4 7 3 9 22 5 21 -5 24 -4 13 4 -23 17 8 14 42 -3 19 -10 29
-11 37 -3 9 9 14 8 22 -3 9 -13 10 -13 7 0 -3 8 -15 17 -29 21 -21 6 -21 7 9
8 17 1 32 -3 32 -7 0 -8 25 -8 88 -3 6 1 12 7 12 14 0 15 29 19 45 7 6 -4 21
-6 35 -5 14 2 30 4 37 4 7 1 10 7 7 14 -3 10 6 13 36 11 28 -1 43 3 47 12 3 8
11 14 18 14 8 0 15 8 17 17 2 12 14 18 37 19 23 1 29 -1 20 -7 -8 -5 -22 -9
-31 -9 -10 0 -18 -4 -18 -10 0 -12 1 -12 58 1 26 6 53 19 60 27 7 10 12 11 12
4 0 -7 7 -12 15 -12 8 0 15 4 15 9 0 5 9 11 21 14 14 4 19 2 16 -8 -4 -9 1
-11 14 -8 23 6 24 19 2 31 -15 9 -14 10 3 15 10 3 31 4 46 2 16 -2 30 1 34 6
7 12 64 12 64 0 0 -5 -12 -12 -27 -14 -26 -4 -26 -4 5 -6 29 -1 37 6 33 32 0
4 6 7 14 7 8 0 15 -7 15 -15 0 -20 16 -19 68 6 32 16 46 19 51 10 6 -9 14 -9
37 0 22 9 25 13 12 16 -10 3 -18 8 -18 13 0 4 10 6 22 2 14 -3 19 -1 14 6 -3
6 -2 13 4 17 5 3 10 0 10 -7 0 -8 13 -13 33 -14 17 -1 26 1 20 3 -17 6 -16 23
0 23 8 0 19 -10 25 -22 11 -21 11 -21 5 6 -5 25 -3 28 11 23 10 -4 23 -7 29
-7 9 0 9 -2 0 -8 -6 -4 15 -8 48 -8 33 -1 56 3 53 8 -3 5 5 6 19 2 23 -5 25
-3 20 18 l-6 23 19 -23 c15 -19 30 -24 66 -24 30 -1 49 -6 52 -15 3 -7 11 -13
18 -12 10 0 10 2 1 6 -7 2 -13 16 -13 29 0 25 14 32 25 14 7 -12 125 -4 165
11 15 5 46 5 75 0 28 -5 42 -9 33 -10 -22 -1 -24 -31 -3 -31 8 0 15 5 15 10 0
6 13 10 29 10 16 0 31 6 34 13 3 9 7 9 17 0 10 -9 5 -13 -24 -18 -35 -7 -45
-18 -27 -29 5 -4 11 -1 13 6 4 10 10 10 31 1 15 -7 27 -8 27 -4 0 17 35 18 54
2 18 -15 19 -15 13 1 -10 27 25 26 50 -2 l21 -25 7 28 c4 15 11 27 16 27 5 0
6 -7 3 -15 -4 -8 -1 -15 5 -15 6 0 11 5 11 11 0 6 9 8 21 4 13 -5 25 -2 31 6
6 10 7 7 3 -10 -5 -16 -4 -21 4 -17 12 8 34 -10 44 -36 3 -10 14 -18 22 -18 9
0 13 -4 10 -10 -3 -5 1 -10 9 -10 22 0 20 17 -2 24 -9 3 -22 14 -29 25 -10 17
-9 22 13 36 13 9 22 20 19 25 -10 16 29 -1 43 -18 24 -31 7 -45 -21 -17 -13
13 -17 12 -29 -2 -11 -14 -11 -16 2 -11 8 2 24 -4 35 -14 11 -10 21 -15 23 -9
2 5 12 6 24 3 15 -3 19 -2 14 7 -4 7 2 20 16 31 19 16 20 19 6 20 -9 0 -23 -7
-31 -15 -13 -13 -16 -13 -21 1 -3 9 -6 17 -6 20 0 2 20 2 45 0 24 -2 42 1 39
5 -3 5 2 6 12 2 14 -5 13 -8 -7 -19 -13 -7 -22 -14 -19 -14 36 -8 50 -8 50 0
0 5 20 9 45 8 26 0 42 -5 39 -10 -4 -5 -15 -8 -25 -5 -11 3 -19 1 -19 -4 0 -8
-40 -23 -64 -24 -5 0 -10 -8 -12 -17 -2 -16 2 -15 39 4 23 12 50 21 61 19 10
-1 30 0 45 4 25 6 25 7 7 21 -11 8 -15 14 -9 14 6 0 16 -7 23 -14 8 -11 18
-12 36 -5 33 12 31 13 38 -16 4 -14 14 -25 23 -25 13 0 14 3 5 12 -7 7 -12 16
-12 21 0 11 43 -3 52 -17 5 -8 13 -8 27 1 16 10 22 9 37 -8 9 -10 21 -19 26
-19 13 0 9 22 -9 42 -10 11 -12 18 -4 18 6 0 16 -11 22 -24 7 -14 22 -27 36
-31 13 -3 21 -10 18 -15 -9 -14 23 -24 38 -12 12 10 87 14 87 5 0 -3 -8 -12
-17 -19 -16 -12 -16 -12 5 -7 12 3 22 9 22 13 0 12 67 5 83 -8 8 -7 26 -15 40
-18 27 -4 94 -61 90 -76 -2 -4 4 -8 12 -8 8 0 15 -7 15 -15 0 -8 9 -20 20 -27
11 -7 20 -23 20 -35 0 -12 5 -25 12 -29 7 -5 8 -3 3 7 -8 12 -6 12 9 0 9 -8
15 -20 12 -28 -3 -7 1 -13 9 -13 9 0 12 -6 9 -15 -4 -8 -2 -15 4 -15 15 0 24
-49 27 -149 1 -47 6 -94 10 -103 4 -10 3 -18 -1 -18 -5 0 -9 -192 -9 -428 -1
-339 -4 -455 -17 -562 -10 -74 -20 -169 -23 -210 -3 -41 -7 -95 -10 -120 -8
-82 -18 -375 -12 -370 3 3 17 36 31 74 28 74 33 115 15 133 -9 9 -9 28 0 75
14 71 33 98 68 98 32 0 77 34 110 84 14 22 39 54 55 71 15 16 28 34 28 38 0 5
9 16 20 25 11 10 38 55 61 102 31 65 56 101 107 150 99 97 172 182 201 237 18
33 38 53 63 65 28 13 43 32 67 80 18 35 46 81 64 102 49 60 57 78 45 99 -13
25 -2 67 18 67 16 0 60 85 70 137 4 20 -1 49 -11 78 -20 51 -19 53 16 57 20 3
24 -2 27 -29 4 -36 24 -58 47 -49 11 4 15 22 15 74 0 38 7 89 15 112 9 25 13
57 9 76 -8 45 11 77 42 70 24 -6 24 -5 24 61 1 82 12 137 34 158 9 9 16 20 16
24 0 4 16 16 35 27 30 16 37 17 44 5 12 -19 3 -39 -20 -46 -27 -9 -24 -25 5
-25 13 0 31 -3 40 -6 11 -4 16 0 16 12 1 11 7 30 14 44 13 22 11 30 -10 72
-23 45 -23 48 -6 57 10 6 28 7 40 4 16 -4 22 -1 22 10 0 9 -4 18 -9 22 -19 11
-8 107 17 152 l24 43 -21 26 c-12 15 -21 33 -21 40 0 15 -38 44 -57 44 -11 0
-10 -5 1 -23 10 -15 12 -27 6 -37 -5 -8 -10 -24 -10 -35 0 -11 -8 -30 -18 -43
l-18 -23 -53 36 c-41 27 -57 33 -67 24 -11 -9 -10 -15 6 -36 28 -36 12 -65
-33 -56 -40 7 -44 10 -30 24 6 6 9 26 6 45 -4 25 -2 34 8 34 8 0 25 24 38 53
14 32 46 74 84 110 47 44 58 60 49 69 -15 15 -15 61 0 76 22 22 48 14 48 -15
0 -24 1 -25 18 -10 32 29 71 32 103 8 54 -40 86 9 63 97 -8 29 -38 25 -42 -6
-2 -13 -10 -26 -17 -28 -21 -8 -55 14 -55 36 0 15 -7 20 -30 20 -22 0 -28 -4
-24 -15 4 -10 0 -15 -11 -15 -12 0 -16 6 -12 20 3 11 -3 30 -13 42 -16 20 -21
21 -44 10 -20 -9 -26 -17 -21 -31 9 -31 -28 -46 -60 -25 -31 21 -31 34 0 68
32 35 32 48 1 36 -20 -7 -26 -6 -31 9 -3 10 -3 27 1 37 4 14 1 13 -14 -6 -12
-14 -24 -22 -27 -18 -7 6 2 99 24 262 7 49 6 74 -2 87 -16 25 -31 19 -35 -14
-3 -24 -21 -39 -23 -19 0 4 -2 25 -4 47 -2 22 -8 51 -14 65 l-10 25 -1 -30 c0
-16 -7 -39 -16 -50 -13 -17 -16 -18 -24 -5 -5 8 -7 22 -4 32 2 9 0 19 -7 23
-8 6 -10 -18 -8 -89 3 -57 0 -100 -6 -104 -5 -4 -15 -16 -21 -26 -13 -25 -41
-42 -51 -33 -4 5 0 22 10 38 19 34 22 60 8 75 -6 5 -11 40 -13 78 -3 57 -7 71
-25 83 -18 12 -23 12 -34 0 -11 -12 -17 -6 -36 36 -13 27 -25 73 -27 103 -2
30 -9 60 -15 67 -6 8 -8 16 -5 19 3 3 -6 33 -20 67 -14 33 -26 73 -26 88 -1
27 -29 90 -30 66 0 -23 -30 -13 -36 12 -3 14 -10 25 -15 25 -5 0 -6 14 -2 31
4 23 0 38 -17 62 -13 18 -29 36 -37 40 -7 4 -13 17 -13 28 0 10 -15 34 -33 52
-18 17 -50 53 -70 79 -21 26 -46 50 -57 53 -11 4 -20 11 -20 16 0 5 -14 25
-31 43 -20 23 -36 32 -49 29 -14 -4 -30 6 -55 33 -85 93 -102 119 -84 130 12
7 68 -44 102 -93 12 -18 28 -33 35 -33 9 0 6 10 -9 33 -26 36 -300 307 -311
307 -5 0 -8 6 -8 13 0 26 -116 115 -215 165 -33 17 -77 42 -98 56 -21 14 -48
28 -62 32 -13 3 -29 12 -35 20 -7 7 -37 20 -68 29 -70 21 -116 48 -159 96 -33
37 -161 129 -179 129 -5 0 -25 11 -45 24 -43 29 -127 46 -228 46 -70 -1 -74
-2 -51 -15 14 -7 46 -13 70 -13 60 1 131 -12 153 -27 10 -7 27 -10 38 -8 12 3
29 -2 42 -14 12 -11 35 -27 50 -37 15 -9 53 -39 83 -67 30 -27 61 -49 69 -49
8 0 15 -4 15 -9 0 -5 -29 -8 -63 -7 -46 2 -79 10 -119 29 -30 15 -59 27 -65
27 -5 0 -20 11 -32 24 -13 14 -30 22 -38 19 -31 -12 -125 32 -191 89 -37 32
-73 57 -81 58 -7 0 -46 18 -86 40 -69 38 -113 51 -100 30 3 -5 2 -10 -3 -10
-18 0 -125 40 -139 52 -9 7 -52 21 -96 33 -59 14 -85 26 -92 40 -18 36 -57 86
-62 81 -3 -3 2 -17 11 -30 9 -14 16 -33 16 -43 0 -12 -18 2 -55 42 -31 33 -55
68 -55 80 0 21 -38 75 -53 75 -17 0 -5 -48 21 -80 37 -45 44 -67 32 -91 -8
-14 -7 -27 5 -48 10 -19 11 -32 5 -36 -18 -11 -67 5 -90 31 -13 13 -29 24 -35
24 -24 0 -65 42 -65 66 0 37 33 30 68 -13 17 -21 33 -35 37 -32 3 4 -1 14 -10
23 -22 21 -35 69 -24 88 11 19 -20 30 -61 21 -18 -3 -29 0 -33 9 -7 20 3 69
14 63 4 -3 13 4 19 15 10 18 8 20 -22 20 -18 0 -48 -9 -67 -21z m3359 -2964
c35 -18 39 -40 10 -48 -11 -3 -20 -14 -20 -25 0 -32 -29 -80 -68 -110 -56 -43
-60 -44 -81 -23 -20 20 -19 51 0 51 5 0 9 10 9 23 0 12 7 31 16 42 9 12 12 30
8 47 -5 24 -2 28 18 28 13 1 34 7 48 15 31 18 26 18 60 0z m-6178 -6301 c-3
-18 -3 -18 10 -2 14 20 27 14 46 -20 16 -29 6 -45 -24 -38 -17 5 -24 2 -24 -8
0 -8 6 -16 13 -19 7 -2 18 -33 26 -68 23 -115 86 -220 145 -242 19 -8 56 -79
56 -108 0 -13 9 -32 20 -44 12 -12 21 -38 23 -60 2 -34 -1 -40 -23 -46 -14 -4
-18 -7 -10 -8 9 -1 31 -16 50 -35 45 -43 64 -107 58 -191 -5 -55 -3 -66 18
-91 26 -32 31 -59 12 -68 -10 -5 -10 -7 0 -12 10 -4 4 -12 -17 -25 -34 -21
-38 -31 -17 -48 10 -8 16 -9 21 -1 9 14 26 13 24 -2 -3 -28 2 -36 33 -42 17
-3 54 -17 82 -31 33 -15 83 -27 141 -34 50 -5 102 -14 118 -20 17 -7 27 -7 27
-1 0 6 5 10 11 10 8 0 8 -4 2 -12 -6 -7 -12 -20 -16 -29 -4 -14 0 -15 39 -6
24 6 44 14 44 18 0 4 16 5 36 2 25 -4 39 -2 45 8 5 9 28 14 61 15 88 2 98 3
98 17 0 9 21 13 75 14 89 2 195 37 195 66 0 11 8 17 22 17 20 0 20 -1 3 -20
-17 -19 -17 -20 10 -30 35 -13 73 -2 141 42 27 18 51 32 54 31 3 0 17 -3 33
-7 20 -5 27 -3 27 9 0 8 5 15 10 15 6 0 10 -4 10 -9 0 -6 -4 -13 -10 -16 -20
-12 -9 -24 28 -31 20 -4 46 -7 56 -6 18 1 68 -21 93 -40 10 -8 9 -13 -2 -25
-8 -8 -19 -11 -25 -8 -6 4 -17 -9 -25 -29 -8 -19 -24 -37 -35 -41 -11 -3 -20
-13 -20 -21 0 -8 -5 -14 -10 -14 -6 0 -14 -8 -17 -17 -11 -29 -28 -41 -66 -48
-36 -7 -66 -30 -54 -41 13 -13 -23 -34 -56 -34 -19 0 -37 -6 -40 -13 -4 -11
-32 -23 -104 -43 -8 -2 -13 -20 -13 -44 0 -35 3 -40 23 -41 l22 0 -23 -9 c-12
-5 -25 -16 -28 -25 -4 -8 -12 -15 -19 -15 -7 0 -18 -7 -25 -15 -9 -10 -9 -15
-1 -15 6 0 11 -8 11 -18 0 -9 9 -23 20 -30 11 -7 20 -22 20 -35 1 -23 42 -77
60 -77 5 0 10 -8 10 -17 0 -10 11 -38 25 -62 15 -25 25 -59 25 -82 0 -38 50
-129 71 -129 5 0 9 -16 9 -35 0 -19 -4 -35 -9 -35 -16 0 -19 -24 -11 -110 8
-96 7 -106 -22 -113 -14 -4 -19 -11 -14 -22 3 -9 0 -18 -9 -21 -8 -4 -13 -10
-10 -15 8 -11 -15 -49 -44 -74 -26 -22 -167 -109 -246 -151 -68 -37 -269 -157
-275 -165 -3 -3 -23 -16 -45 -27 -22 -12 -57 -37 -77 -56 -20 -20 -39 -36 -42
-36 -3 0 -19 -14 -36 -30 -17 -17 -50 -43 -73 -58 -23 -15 -44 -30 -47 -34 -3
-4 -28 -9 -56 -11 -50 -4 -104 -30 -104 -49 0 -5 -12 -8 -27 -6 -25 3 -28 7
-28 38 0 42 -29 54 -54 22 -11 -13 -48 -27 -114 -42 -53 -12 -100 -26 -103
-31 -7 -13 -44 -11 -44 2 0 6 13 24 29 40 22 21 39 29 66 29 54 0 39 20 -31
44 -32 10 -66 22 -74 25 -35 12 -191 26 -199 18 -5 -5 -23 -4 -43 3 -31 11
-38 10 -94 -23 -33 -20 -83 -56 -110 -80 -27 -24 -67 -50 -89 -57 -22 -7 -59
-21 -83 -31 -54 -24 -68 -24 -75 2 -5 18 -8 19 -26 7 -16 -10 -25 -10 -39 -2
-27 17 -15 62 30 115 46 54 44 79 -4 52 -23 -14 -32 -15 -35 -5 -3 7 -23 12
-49 12 -47 0 -68 20 -45 43 15 15 14 37 -3 37 -7 0 -19 -6 -25 -14 -34 -40
-91 42 -91 131 0 26 -6 51 -15 59 -8 9 -15 26 -15 40 0 13 -4 24 -8 24 -12 0
3 109 21 155 9 22 16 65 17 95 0 58 54 254 77 281 8 9 13 20 12 25 -2 10 8 40
21 64 4 8 17 14 28 13 21 -3 62 39 62 62 0 6 9 20 20 30 11 10 20 24 20 32 0
7 6 13 13 13 8 0 24 11 37 25 13 14 29 25 35 25 6 0 21 14 33 30 13 17 29 30
37 30 7 0 17 9 20 20 3 11 15 25 26 30 10 6 19 17 19 24 0 7 10 26 21 41 12
14 22 36 23 48 1 15 7 21 19 19 11 -2 22 7 29 25 7 15 18 34 25 40 6 7 14 26
18 43 6 26 35 44 35 21 0 -4 14 -22 30 -40 24 -24 38 -31 69 -31 l40 0 6 -47
c3 -27 14 -75 25 -108 10 -34 21 -107 25 -170 8 -141 11 -155 40 -155 22 0 24
5 30 68 3 37 11 85 16 107 44 169 58 302 42 405 -5 30 -5 80 -1 110 5 40 2 85
-13 165 -19 101 -20 120 -9 230 13 125 3 266 -20 273 -5 2 -10 12 -10 22 0 10
-4 21 -9 24 -4 3 -17 31 -27 63 l-19 58 -3 -39 c-2 -24 2 -42 9 -47 11 -6 11
-32 1 -131 -7 -68 -12 -138 -12 -155 0 -23 -5 -33 -15 -33 -11 0 -15 12 -17
43 l-1 42 -7 -45 -6 -45 -9 43 c-4 25 -13 42 -21 42 -17 0 -18 22 -1 39 6 6
13 26 14 44 2 41 21 158 34 218 12 55 10 182 -4 291 -8 58 -7 96 2 146 19 106
45 192 56 189 5 -2 9 -13 7 -23z m-2569 -905 c26 -32 21 -61 -17 -98 -40 -39
-70 -38 -99 0 -23 32 -17 74 15 109 25 27 73 22 101 -11z"/>
<path d="M3822 7873 c-18 -4 -78 -71 -69 -79 1 -1 37 -14 80 -28 72 -24 80
-25 107 -11 27 14 33 14 60 0 36 -18 60 -19 60 -2 0 19 -21 37 -45 38 -17 1
-17 2 -2 6 27 7 15 27 -19 33 -17 3 -33 14 -39 28 -8 19 -17 22 -60 21 -27 -1
-60 -4 -73 -6z"/>
<path d="M4462 14698 c-7 -6 -90 -23 -176 -35 -24 -3 -41 -1 -46 6 -5 9 -10 8
-20 -4 -11 -13 -4 -15 61 -11 41 3 90 8 109 11 34 7 34 7 14 -9 -12 -8 -34
-15 -50 -14 -40 1 -236 -18 -288 -28 -65 -12 -100 -14 -105 -6 -4 6 -23 7 -48
3 -26 -5 -46 -4 -52 2 -6 6 -11 7 -11 2 0 -6 -20 -10 -45 -11 -24 0 -50 -6
-57 -11 -7 -6 -44 -23 -83 -38 -85 -34 -97 -43 -90 -66 4 -12 1 -21 -10 -25
-12 -5 -13 -9 -4 -20 9 -11 8 -14 -4 -14 -8 0 -21 -8 -28 -17 -13 -15 -12 -16
9 -10 13 3 21 3 18 0 -3 -3 2 -12 12 -19 15 -11 14 -13 -11 -25 -35 -16 -34
-26 3 -34 35 -8 50 -25 21 -25 -24 0 -36 -16 -19 -24 7 -3 2 -3 -10 0 -20 5
-23 3 -18 -13 5 -15 -1 -23 -21 -32 l-27 -13 54 -18 c62 -22 95 -26 70 -10 -8
5 -10 10 -4 10 5 0 19 -7 30 -15 26 -20 84 -20 84 0 0 8 -4 15 -10 15 -5 0
-10 5 -10 10 0 6 11 3 24 -6 14 -8 22 -22 20 -29 -3 -8 6 -20 22 -28 l28 -14
-25 -13 c-22 -12 -23 -12 -10 3 12 15 11 17 -8 17 -11 0 -21 5 -21 10 0 6 -7
10 -15 10 -17 0 -20 -16 -5 -25 15 -9 12 -25 -5 -25 -8 0 -15 6 -15 14 0 8 -6
18 -12 22 -7 4 -10 4 -6 -1 4 -4 0 -14 -10 -22 -16 -14 -16 -14 1 -9 15 5 17
2 12 -16 -6 -18 -4 -20 14 -15 11 3 24 1 27 -4 3 -5 1 -9 -4 -9 -5 0 -12 -9
-15 -21 -4 -16 -11 -19 -27 -14 -15 5 -21 3 -20 -7 3 -20 -11 -58 -21 -58 -5
0 -4 -12 1 -26 14 -37 12 -48 -6 -30 -25 26 -27 18 -3 -15 18 -25 19 -33 8
-39 -7 -5 -10 -12 -6 -17 5 -4 11 -3 15 3 12 19 37 22 56 8 18 -13 18 -14 -7
-23 -14 -5 -28 -15 -32 -21 -4 -6 -15 -8 -25 -5 -10 3 -21 2 -24 -3 -6 -11 27
-10 66 2 23 7 32 3 57 -24 25 -28 31 -30 50 -20 17 9 26 9 37 -1 8 -7 27 -14
42 -15 17 -2 22 0 14 5 -11 6 -10 11 3 25 22 22 28 20 20 -6 -6 -18 -4 -20 11
-14 15 6 17 5 7 -5 -7 -7 -13 -17 -13 -22 0 -10 43 2 51 15 3 5 14 -3 25 -17
10 -14 27 -25 37 -25 10 0 15 -4 12 -10 -3 -5 -1 -10 5 -10 7 0 9 -7 6 -16 -6
-15 -3 -15 20 1 21 14 26 14 22 3 -4 -10 1 -14 16 -14 22 1 23 -4 10 -39 -7
-20 -7 -20 15 0 25 22 71 31 71 15 0 -6 -4 -9 -9 -5 -5 3 -12 1 -16 -5 -4 -6
4 -10 19 -10 14 0 28 -4 31 -10 3 -5 13 -10 22 -10 20 0 55 -39 47 -52 -4 -6
-10 -5 -15 3 -7 12 -9 12 -9 0 0 -8 -6 -11 -16 -7 -14 5 -15 4 -4 -9 7 -8 17
-12 23 -8 6 4 8 -2 4 -16 -5 -22 -5 -22 13 -6 16 15 19 15 34 -1 10 -9 15 -22
12 -30 -3 -7 0 -15 7 -18 7 -3 1 -3 -13 -1 -73 13 -95 13 -102 2 -6 -9 -8 -9
-8 1 0 7 -12 12 -27 11 -18 -1 -21 -3 -10 -6 10 -2 16 -12 15 -21 -2 -14 4
-16 30 -14 19 2 32 -1 32 -8 0 -6 4 -9 10 -5 5 3 17 1 27 -4 42 -22 106 -29
228 -27 72 1 135 -1 141 -6 6 -4 37 -3 69 3 31 6 74 8 95 4 24 -4 46 -2 58 6
17 10 23 10 36 0 9 -8 16 -20 16 -27 0 -8 5 -14 10 -14 6 0 10 4 10 10 0 5 6
7 13 5 6 -3 18 -1 26 4 12 8 12 12 2 25 -16 19 -11 20 23 5 l25 -12 -22 -18
c-36 -30 -13 -21 27 10 24 19 32 31 24 35 -7 3 -1 4 15 1 18 -4 27 -1 27 7 0
9 3 9 8 2 11 -17 85 -14 105 4 9 8 25 16 35 17 24 2 54 19 91 54 18 17 42 31
52 31 10 0 19 6 19 14 0 8 10 16 23 18 16 2 21 9 19 26 -2 13 2 22 11 22 7 0
20 15 28 33 9 21 22 33 39 35 14 2 30 8 35 12 6 5 32 8 59 6 30 -1 53 3 61 11
8 7 32 13 54 13 22 0 43 5 46 10 4 7 22 8 43 5 81 -14 101 -13 95 1 -3 8 -2
14 2 14 11 0 34 -27 28 -34 -9 -9 10 -7 26 3 11 7 10 11 -5 20 -18 10 -18 10
-1 11 12 0 20 -10 24 -30 7 -36 50 -70 92 -73 16 -1 27 -5 24 -10 -2 -4 11
-14 31 -22 19 -8 37 -19 41 -24 9 -15 7 -69 -3 -128 -8 -48 -7 -54 15 -74 12
-13 23 -18 23 -13 0 5 8 0 16 -11 11 -14 18 -16 21 -7 5 14 49 16 57 3 3 -5
16 -7 29 -4 19 4 20 3 7 -9 -22 -19 -24 -58 -2 -59 39 -3 59 -7 87 -20 17 -7
39 -13 50 -13 11 -1 20 -8 20 -16 0 -9 10 -15 24 -15 14 0 26 -6 29 -13 2 -6
10 -12 18 -12 16 0 19 -26 3 -35 -6 -4 -8 -13 -5 -21 3 -8 1 -14 -4 -14 -6 0
-10 3 -10 8 0 12 -59 34 -71 26 -6 -3 -15 -1 -19 6 -4 7 -13 11 -19 9 -12 -4
18 -49 53 -78 10 -9 32 -28 49 -43 17 -15 34 -25 39 -22 4 3 22 -11 39 -30 19
-22 40 -36 54 -36 13 0 25 -7 29 -15 3 -8 12 -15 21 -15 8 0 32 -11 53 -23 20
-13 44 -24 52 -25 8 0 34 -8 58 -16 24 -9 47 -14 52 -11 13 8 0 35 -16 35 -8
0 -14 4 -14 10 0 5 -11 12 -25 16 -14 3 -22 10 -19 15 3 5 -2 6 -10 3 -9 -3
-16 -1 -16 5 0 6 -8 11 -17 11 -17 1 -17 2 1 15 16 12 16 16 5 27 -8 8 -29 20
-48 28 -29 12 -31 15 -15 21 10 4 13 8 6 8 -19 1 -39 24 -34 39 3 10 8 8 18
-5 11 -15 15 -16 23 -4 11 16 -19 52 -33 40 -6 -5 -18 -1 -30 9 -17 15 -19 15
-13 1 4 -13 1 -16 -16 -12 -21 4 -21 4 3 -15 14 -12 22 -24 18 -27 -9 -9 -48
31 -48 49 0 8 8 13 18 12 12 -1 16 5 15 22 -3 20 -1 21 17 10 11 -7 20 -20 20
-28 0 -13 1 -13 10 0 9 13 12 13 21 -2 14 -25 42 -24 34 1 -5 16 -2 18 15 14
11 -3 20 -11 20 -19 0 -7 5 -16 10 -19 6 -4 9 -3 8 2 -5 14 11 14 50 -3 20 -9
64 -18 97 -21 59 -5 61 -4 107 36 55 49 98 121 98 165 1 30 1 31 18 11 9 -11
33 -27 53 -37 23 -10 42 -29 53 -52 9 -19 24 -40 33 -45 15 -8 15 -10 0 -26
-25 -24 -21 -36 9 -25 33 13 34 13 34 -4 0 -17 18 -31 27 -22 3 3 0 14 -8 23
-7 10 -1 7 13 -6 l27 -23 -5 23 c-5 21 -1 19 28 -14 18 -20 39 -37 46 -37 13
0 17 -3 65 -45 15 -14 31 -25 34 -25 7 0 -49 74 -60 78 -4 2 -3 10 3 17 10 12
18 10 47 -6 19 -11 37 -18 40 -15 3 2 -5 10 -17 16 -18 9 -19 14 -9 27 11 12
10 14 -2 12 -7 -2 -27 4 -44 14 -16 9 -26 16 -21 17 11 0 -50 57 -81 77 -10 6
-17 16 -15 22 1 6 -9 16 -22 21 -32 12 -40 27 -20 38 10 6 13 12 6 16 -6 3
-13 2 -17 -4 -12 -19 -27 -10 -23 15 4 20 0 25 -24 30 -29 7 -34 26 -7 33 11
3 11 2 -1 -7 -12 -9 -9 -11 15 -11 44 0 90 -32 189 -133 61 -62 90 -86 96 -77
11 17 2 42 -26 75 -13 15 -24 33 -24 39 0 6 5 4 10 -4 5 -8 10 -10 10 -5 0 13
-16 37 -24 36 -20 -3 -26 0 -20 11 5 8 2 9 -10 5 -13 -5 -17 -3 -13 6 3 9 -7
19 -29 27 -19 8 -34 17 -34 20 0 15 -103 60 -123 54 -16 -5 -19 -3 -14 10 4 9
2 16 -4 16 -6 0 -9 6 -6 14 3 8 1 17 -6 20 -7 3 6 5 28 4 70 -2 96 2 90 12 -4
6 9 10 33 10 22 0 61 2 88 5 35 4 43 3 29 -4 -18 -9 -17 -10 10 -11 57 -3 126
2 158 11 21 6 33 6 35 -1 2 -5 14 -10 28 -10 17 0 22 4 18 15 -4 8 -2 15 4 15
6 0 12 -4 14 -10 2 -6 15 -6 33 -2 20 6 25 11 16 16 -11 7 -11 10 0 16 7 5 18
2 26 -6 23 -22 38 -16 17 7 -19 21 -18 21 4 39 27 22 28 34 2 27 -22 -6 -43
15 -45 44 -2 18 -1 18 17 2 26 -24 22 -7 -9 35 -38 50 -50 62 -62 62 -6 0 -11
5 -11 10 0 6 -9 10 -21 10 -11 0 -18 4 -15 9 8 12 -91 43 -114 36 -11 -4 -23
1 -32 13 -18 25 -73 62 -92 62 -9 0 -16 4 -16 10 0 12 -69 42 -84 37 -6 -2 14
-16 45 -30 58 -28 97 -62 85 -74 -4 -4 -11 -1 -15 6 -5 8 -14 10 -21 6 -7 -5
-11 -4 -8 1 3 5 -5 17 -17 27 -13 9 -26 13 -30 8 -3 -5 4 -12 15 -16 11 -3 20
-11 20 -16 0 -5 -13 -3 -30 6 -16 9 -30 13 -30 9 0 -9 44 -43 56 -44 13 0 69
-80 56 -80 -5 0 -22 16 -38 35 -16 19 -35 35 -41 35 -7 0 -13 4 -13 9 0 5 -9
13 -21 16 -13 4 -18 12 -15 21 3 8 2 13 -3 10 -5 -3 -11 3 -14 14 -6 23 -42
27 -50 5 -7 -16 8 -29 23 -20 6 3 10 2 10 -4 0 -17 -18 -22 -32 -8 -7 7 -22
16 -33 20 -19 7 -19 6 -2 -7 17 -13 16 -14 -2 -19 -12 -3 -19 0 -18 7 1 6 -4
10 -11 8 -8 -1 -27 9 -44 23 -20 17 -37 23 -53 19 -14 -3 -34 1 -49 11 -24 16
-26 16 -20 1 3 -9 2 -16 -4 -16 -6 0 -12 4 -14 10 -3 10 -90 23 -151 22 -20 0
-35 4 -32 9 3 5 -2 6 -11 2 -16 -6 -15 -7 2 -20 10 -7 13 -13 5 -13 -13 0 -43
25 -36 31 2 3 -8 9 -21 16 -23 10 -24 10 -18 -9 5 -18 4 -19 -16 -8 -18 10
-24 9 -31 -1 -7 -12 -9 -12 -9 0 0 9 -7 11 -22 8 -12 -4 -28 -1 -35 4 -9 8
-22 8 -43 0 -18 -6 -28 -6 -25 -1 4 6 11 10 17 10 5 0 22 10 36 22 20 15 22
19 7 13 -11 -4 -37 -11 -59 -15 -21 -4 -42 -14 -46 -21 -7 -10 -11 -10 -24 0
-9 8 -16 20 -16 28 0 19 -25 11 -26 -8 -2 -35 -5 -40 -14 -34 -6 3 -7 17 -4
29 4 15 0 25 -9 29 -19 7 -31 -44 -14 -55 7 -5 3 -8 -11 -8 -12 0 -21 5 -20
11 2 6 -2 13 -9 16 -7 3 -9 -3 -6 -16 4 -16 1 -21 -16 -21 -14 0 -21 -6 -21
-19 0 -11 -4 -23 -10 -26 -5 -3 -10 1 -10 9 0 9 -7 16 -15 16 -8 0 -15 -9 -15
-21 0 -31 -17 -14 -24 25 -7 37 -36 71 -36 43 0 -11 -14 -3 -41 24 -40 39 -41
40 -35 12 3 -15 2 -34 -3 -42 -7 -11 -11 -9 -21 9 l-12 22 -27 -31 c-27 -30
-81 -44 -81 -21 0 6 -5 10 -10 10 -6 0 -5 -8 2 -20 19 -30 3 -34 -32 -9 -24
19 -33 21 -39 10 -9 -15 -38 -4 -60 23 -7 8 -18 13 -25 10 -15 -6 -76 53 -76
73 0 20 -18 16 -30 -7 -10 -18 -13 -19 -34 -5 -21 14 -56 12 -56 -4 0 -3 -12
-7 -27 -8 l-27 -1 23 17 c17 13 21 22 15 34 -9 15 -12 15 -38 2 -37 -20 -37
-19 -25 12 10 27 10 27 -10 9 -11 -10 -18 -24 -14 -30 4 -6 -1 -5 -9 2 -9 8
-14 20 -11 28 7 19 -7 18 -22 -3 -7 -9 -19 -14 -29 -10 -20 8 -21 37 -2 37 8
0 18 5 22 12 5 8 2 9 -11 4 -11 -4 -22 -2 -27 6 -6 10 -8 9 -8 -3 0 -9 -11
-21 -24 -27 -20 -9 -23 -8 -22 6 0 9 4 19 7 22 9 8 21 50 14 50 -3 0 -31 -23
-61 -51 -50 -48 -67 -52 -45 -11 7 14 4 17 -14 18 -16 1 -27 -7 -37 -29 l-15
-31 -1 39 c-1 22 5 50 14 63 l15 23 -25 -16 c-14 -10 -26 -26 -26 -36 0 -10
-5 -21 -12 -25 -7 -5 -9 -2 -5 8 8 21 -3 30 -20 17 -10 -9 -13 -7 -13 9 0 11
-7 25 -15 32 -8 7 -15 27 -15 45 0 18 -7 39 -17 46 -15 13 -16 12 -11 -8 9
-32 -1 -28 -52 22 -45 45 -60 54 -60 35 0 -5 -5 -10 -11 -10 -5 0 -7 5 -4 10
3 6 -1 10 -10 10 -9 0 -13 5 -10 10 3 6 0 10 -7 10 -10 0 -9 3 2 10 8 5 12 11
10 14 -9 9 -101 13 -106 4 -3 -4 -20 -8 -37 -7 l-32 1 33 8 c43 10 46 14 31
38 -14 23 -56 34 -79 22 -9 -5 -22 -5 -29 -1 -9 6 -1 11 23 15 20 4 40 15 45
24 8 15 4 17 -40 14 -27 -2 -49 -8 -49 -13 0 -5 -8 -9 -17 -9 -15 1 -15 3 5
19 30 26 28 30 -15 26 -31 -4 -33 -3 -13 4 27 9 17 17 -29 23 -32 4 -38 24 -9
32 13 4 18 10 11 12 -7 3 -22 0 -34 -7 -18 -9 -24 -9 -27 0 -2 7 -15 16 -28
21 -13 5 -24 17 -24 25 0 9 -5 13 -10 10 -6 -4 -8 -11 -5 -16 4 -5 1 -9 -6 -9
-7 0 -9 9 -6 23 l6 22 -19 -24 c-15 -17 -21 -20 -25 -9 -6 15 -92 17 -190 4
-27 -3 -44 -3 -37 0 6 3 9 10 6 16 -8 13 14 28 43 28 12 0 24 4 28 10 6 10
-52 9 -63 -2z m-290 -828 c12 -10 24 -18 27 -15 4 2 15 -24 25 -58 10 -34 25
-71 32 -82 19 -26 18 -41 -1 -25 -12 10 -15 10 -15 -1 0 -9 -3 -10 -8 -3 -4 6
-18 14 -32 17 -34 9 -102 66 -93 80 4 6 0 8 -10 4 -23 -9 -22 18 2 42 10 10
22 28 26 40 8 26 20 27 47 1z"/>
<path d="M0 13032 l0 -209 38 -11 c23 -7 43 -21 49 -34 19 -42 -20 -108 -64
-108 -22 0 -23 -2 -23 -88 l0 -89 32 5 c31 4 74 29 109 62 8 8 28 25 43 38 15
13 25 29 23 35 -3 7 -8 19 -11 28 -4 9 3 26 17 41 13 14 27 33 30 42 8 21 56
32 78 18 22 -14 25 -10 32 48 8 60 -9 97 -58 124 -45 26 -70 64 -80 127 -4 24
-14 52 -23 62 -16 18 -174 117 -186 117 -3 0 -6 -94 -6 -208z"/>
<path d="M5040 12194 c-42 -13 -100 -50 -96 -61 3 -8 -8 -16 -27 -21 -29 -9
-36 -6 -79 36 -37 35 -46 40 -41 23 3 -12 23 -41 44 -63 21 -23 36 -45 34 -49
-3 -4 1 -9 9 -12 9 -4 13 -16 12 -32 -2 -16 1 -24 8 -22 6 2 10 12 10 21 -2
20 10 21 25 2 10 -12 8 -17 -8 -26 -27 -14 -26 -24 1 -50 l23 -21 -44 7 c-35
6 -42 4 -36 -6 5 -8 4 -11 -3 -6 -5 3 -12 3 -15 -1 -2 -5 -3 -3 -1 3 1 6 -2
17 -7 25 -6 10 -9 11 -9 1 0 -7 -9 -23 -21 -35 -14 -15 -18 -17 -14 -5 5 13 2
15 -15 11 -16 -4 -18 -8 -8 -14 9 -6 9 -9 1 -9 -6 0 -15 5 -18 10 -4 6 -12 7
-18 4 -9 -5 -9 -4 0 6 6 7 26 16 45 20 l33 8 -32 1 c-17 1 -35 -3 -38 -9 -3
-5 -21 -10 -38 -10 -50 0 -79 -11 -73 -26 7 -17 -8 -18 -34 -2 -16 10 -26 10
-52 -1 -18 -7 -46 -16 -63 -19 -16 -2 -32 -8 -35 -11 -12 -14 -50 -31 -50 -21
0 15 -27 12 -44 -5 -8 -8 -19 -15 -25 -15 -6 0 -26 -9 -46 -20 -45 -26 -67
-25 -36 0 27 23 15 26 -23 7 -14 -8 -23 -17 -19 -20 3 -4 -1 -7 -11 -7 -17 0
-76 -27 -86 -39 -3 -3 -35 -31 -72 -60 -67 -54 -105 -97 -94 -108 3 -3 14 5
25 18 11 13 20 20 21 16 0 -4 -11 -20 -25 -35 -22 -23 -27 -25 -36 -12 -7 11
-8 9 -4 -10 3 -14 -1 -36 -9 -50 -9 -14 -19 -35 -25 -46 -5 -12 -17 -24 -25
-27 -9 -4 -16 -11 -16 -18 0 -6 -14 -29 -31 -51 -37 -46 -32 -64 6 -22 l26 29
-22 -37 c-11 -21 -18 -42 -14 -48 4 -6 -12 -31 -34 -55 -47 -51 -53 -70 -16
-53 14 6 23 13 21 15 -8 9 29 43 45 43 15 0 15 -4 6 -24 -7 -13 -15 -22 -19
-20 -4 3 -5 -2 -1 -11 3 -10 0 -21 -8 -25 -7 -5 -10 -12 -5 -17 4 -4 12 0 17
10 6 9 14 15 20 12 5 -4 9 -1 9 4 0 6 6 11 14 11 9 0 12 -7 9 -20 -3 -11 -11
-20 -18 -20 -7 0 -15 -10 -19 -22 -9 -35 -7 -43 6 -30 7 7 19 12 28 12 9 0 25
9 36 21 14 16 16 22 5 28 -10 7 -11 15 -3 37 10 28 10 28 10 4 0 -14 2 -32 6
-40 6 -16 -39 -78 -50 -67 -7 7 -54 -41 -54 -55 0 -5 10 0 22 12 12 11 27 20
32 20 8 0 8 -3 0 -8 -5 -4 -17 -23 -26 -42 -9 -19 -28 -45 -41 -57 -14 -11
-29 -29 -35 -39 -9 -16 -11 -17 -27 -1 -15 16 -15 17 0 17 19 0 45 23 45 40 0
7 7 10 15 6 8 -3 15 -1 15 5 0 17 -29 41 -43 36 -9 -4 -9 -6 1 -6 6 -1 12 -5
12 -11 0 -5 -8 -7 -17 -4 -13 4 -15 3 -5 -4 11 -7 10 -12 -3 -26 -9 -9 -20
-16 -25 -16 -4 0 -15 -12 -25 -26 -9 -15 -12 -23 -6 -20 16 10 53 -13 47 -30
-6 -15 6 -19 18 -7 4 4 15 8 24 8 9 0 19 11 22 25 4 15 13 24 23 24 9 -1 14 2
11 7 -3 5 1 9 9 9 8 0 18 -7 21 -16 3 -8 10 -13 15 -9 14 8 2 35 -15 35 -8 0
-14 9 -14 20 0 15 7 20 26 20 14 0 23 4 20 9 -3 5 8 14 24 20 17 5 30 13 30
16 0 3 -6 3 -12 -1 -7 -4 -2 5 12 20 13 14 30 24 37 22 7 -3 13 1 13 9 0 18
16 20 26 3 5 -7 3 -8 -6 -3 -10 6 -11 2 -5 -21 4 -16 8 -35 8 -41 0 -16 37
-17 37 -2 0 5 -4 7 -10 4 -24 -15 -7 14 27 46 20 18 33 29 29 22 -3 -6 -2 -14
4 -18 5 -3 10 -1 10 5 0 6 5 8 10 5 6 -3 10 -1 10 5 0 7 7 10 15 6 11 -4 15 2
15 22 0 19 3 23 9 13 12 -18 52 -5 44 15 -4 11 5 14 38 14 53 0 91 9 84 21 -3
4 4 7 16 6 l21 -1 -22 -18 c-12 -10 -34 -18 -49 -18 -22 -1 -24 -2 -9 -11 12
-7 24 -6 37 1 31 16 43 12 35 -12 -6 -21 -6 -21 11 -4 14 14 15 20 5 26 -16
10 -6 26 20 33 17 4 19 3 10 -8 -9 -11 -7 -12 8 -8 14 3 21 -2 25 -17 5 -19
10 -21 32 -16 24 6 26 5 20 -16 -7 -22 -6 -22 11 -5 17 15 17 19 4 28 -11 8
-12 12 -2 16 6 2 10 9 6 14 -8 13 20 11 34 -3 9 -9 12 -8 12 5 0 9 -4 17 -10
17 -5 0 -10 12 -10 26 0 18 4 23 13 17 23 -14 48 -13 53 2 5 12 9 13 21 4 7
-7 12 -18 9 -26 -3 -7 -1 -13 3 -13 5 0 11 4 13 9 2 5 18 12 37 16 25 5 32 4
26 -5 -5 -9 -2 -10 13 -6 14 5 24 1 30 -10 5 -10 23 -16 45 -17 20 0 34 -4 32
-7 -2 -3 4 -6 13 -7 36 -3 68 -10 80 -17 7 -4 16 -5 21 -2 14 9 41 -4 41 -20
0 -8 10 -14 25 -14 15 0 40 -7 57 -16 30 -15 51 -22 208 -66 86 -23 249 -32
338 -16 31 5 71 11 87 13 17 2 30 4 30 5 0 1 41 4 90 6 80 4 203 -5 260 -19
11 -3 26 -6 34 -6 10 -1 12 -10 8 -35 -5 -30 -3 -33 15 -28 14 3 26 -2 34 -13
8 -11 14 -13 14 -7 0 10 5 10 20 2 11 -6 20 -8 20 -4 0 12 50 -46 77 -89 16
-25 21 -42 14 -46 -6 -4 -7 -12 -1 -21 8 -13 10 -12 10 3 0 9 5 17 10 17 6 0
10 -6 10 -13 0 -7 10 -17 23 -22 12 -6 22 -17 22 -25 0 -17 24 -30 43 -23 6 3
12 12 12 20 0 13 3 13 15 3 8 -7 15 -9 15 -5 0 4 8 1 18 -6 16 -13 16 -13 0 7
-28 32 -20 62 9 33 5 -5 22 -7 37 -3 20 5 25 11 21 24 -3 10 -1 21 5 25 6 4 8
15 5 25 -3 10 1 27 9 37 8 10 24 29 35 43 20 23 22 24 35 8 17 -22 26 -23 26
-2 0 13 3 14 14 4 12 -9 16 -6 21 23 9 44 3 83 -12 80 -6 -1 -9 6 -6 17 5 20
-11 104 -28 150 -5 14 -19 30 -32 35 -12 6 -32 28 -44 50 -24 43 -29 60 -13
50 6 -3 7 1 4 10 -4 9 -13 14 -21 10 -12 -4 -14 0 -10 15 3 13 1 18 -6 13 -6
-4 -8 0 -4 10 4 10 2 16 -6 14 -7 -1 -12 5 -12 13 0 15 -18 40 -29 40 -4 0 -4
-11 0 -25 5 -19 2 -25 -10 -25 -9 0 -16 7 -16 15 0 8 -9 19 -19 25 -11 5 -26
29 -34 52 l-15 43 -1 -32 c-1 -22 -6 -33 -16 -33 -10 0 -12 -6 -8 -17 6 -16 5
-16 -11 -3 -17 13 -17 15 5 34 19 15 20 18 5 12 -24 -8 -46 10 -46 38 0 30
-29 69 -46 62 -9 -4 -14 2 -14 15 0 13 4 18 12 13 7 -5 8 -3 3 5 -5 8 -19 11
-40 7 -19 -4 -36 -2 -40 4 -3 5 -11 10 -17 10 -7 0 -6 -6 2 -15 11 -13 8 -15
-22 -15 -19 0 -39 5 -46 12 -9 9 -12 9 -12 -2 0 -11 -3 -11 -12 -2 -18 18 -27
14 -20 -10 3 -14 2 -19 -7 -14 -6 4 -9 12 -6 17 9 14 -5 11 -21 -6 -9 -8 -20
-15 -25 -15 -5 0 -9 7 -9 15 0 8 -4 15 -10 15 -5 0 -9 4 -7 8 1 4 -15 23 -35
41 -21 18 -36 37 -33 41 8 14 -16 23 -28 11 -7 -7 -6 -16 6 -29 9 -10 17 -23
17 -28 0 -5 -5 -2 -10 6 -9 13 -11 13 -21 0 -8 -12 -9 -10 -4 8 5 18 2 22 -14
22 -15 0 -19 -5 -14 -17 3 -10 -6 0 -21 22 -27 39 -76 91 -76 81 0 -3 13 -26
30 -52 36 -57 31 -73 -11 -32 -31 31 -53 32 -28 1 9 -11 10 -14 2 -9 -20 11
-15 -9 6 -28 11 -10 17 -24 14 -33 -4 -11 -13 -6 -34 19 -15 18 -28 39 -29 46
0 15 -20 16 -20 1 0 -6 -14 0 -31 12 l-32 22 18 -26 c10 -16 13 -27 6 -27 -6
0 -11 -17 -11 -40 0 -49 -17 -53 -26 -5 -3 19 -10 32 -15 29 -5 -3 -9 2 -9 10
0 9 -7 16 -16 16 -10 0 -14 -6 -10 -15 3 -9 0 -15 -9 -15 -25 0 -17 28 13 45
24 14 25 15 3 9 -22 -6 -23 -4 -17 20 5 19 3 26 -9 26 -11 0 -13 -7 -8 -32 6
-32 6 -33 -12 -14 -14 13 -20 15 -23 6 -3 -7 0 -15 5 -19 13 -8 23 -61 11 -61
-5 0 -6 -4 -3 -10 3 -5 2 -10 -3 -10 -5 0 -22 -11 -38 -25 -31 -26 -45 -26
-23 2 21 26 -5 8 -70 -46 -29 -25 -57 -45 -62 -44 -4 2 -6 -4 -3 -12 8 -20 16
-19 44 5 13 11 26 20 30 20 4 0 20 11 36 25 16 14 37 25 47 25 9 0 17 7 17 16
0 8 4 13 9 10 15 -9 40 4 35 19 -3 7 1 15 9 18 10 4 13 -1 9 -19 -4 -20 -32
-56 -32 -41 0 3 -11 -4 -25 -17 -30 -28 -32 -36 -5 -29 11 3 20 9 20 14 0 5 7
9 15 9 8 0 15 -4 15 -10 0 -5 -6 -10 -12 -10 -9 0 -8 -4 2 -10 13 -9 13 -11 0
-20 -8 -5 -10 -10 -5 -10 6 0 -1 -6 -14 -13 -24 -12 -40 -37 -24 -37 4 0 22
14 40 30 38 36 41 36 45 8 4 -30 25 -34 34 -6 l8 23 6 -25 c3 -14 14 -27 24
-28 14 -3 17 0 12 13 -5 13 -2 16 10 11 14 -5 15 -4 4 9 -7 9 -10 18 -7 21 3
3 13 -6 22 -20 14 -21 21 -24 31 -15 8 6 21 9 29 5 8 -3 15 -1 15 4 0 6 -9 10
-20 10 -11 0 -20 7 -20 15 0 8 5 15 11 15 5 0 7 5 3 12 -4 7 -3 8 4 4 6 -4 9
-13 5 -21 -3 -9 1 -15 10 -15 19 0 29 24 14 39 -17 17 -1 24 21 10 11 -7 24
-27 28 -43 l7 -31 7 35 c5 23 8 28 10 15 7 -43 8 -50 9 -62 1 -7 11 -13 22
-13 20 0 21 1 5 25 -9 13 -16 32 -15 42 0 11 3 13 6 6 2 -7 12 -13 20 -13 11
0 14 -7 10 -23 -4 -12 -3 -27 1 -32 9 -13 52 -17 52 -5 0 6 -5 10 -12 10 -6 0
-9 3 -5 6 3 4 -1 20 -9 36 -8 16 -13 35 -11 41 2 7 13 -7 25 -29 23 -44 42
-57 69 -47 10 4 14 2 10 -4 -7 -11 39 -40 49 -31 3 4 -2 19 -12 33 l-18 28 22
-14 c28 -18 38 -48 21 -61 -11 -7 -10 -8 4 -4 13 4 22 -2 32 -27 13 -30 14
-30 15 -7 0 20 2 22 10 10 8 -13 10 -12 10 3 0 9 -6 17 -14 17 -16 0 -29 27
-17 34 12 8 52 -34 45 -46 -4 -6 2 -8 17 -3 13 3 20 3 14 -2 -5 -4 -17 -17
-25 -28 -15 -19 -15 -19 12 -2 22 14 26 14 22 2 -4 -9 3 -19 20 -26 14 -7 23
-16 20 -20 -3 -5 0 -9 5 -9 6 0 11 -5 11 -12 0 -7 -16 3 -35 22 -19 19 -35 30
-34 24 1 -23 17 -49 30 -49 8 0 15 -6 15 -12 4 -38 4 -38 13 -24 6 9 9 5 9
-14 l0 -28 -33 36 c-18 20 -38 49 -43 64 l-10 28 -1 -27 c-1 -17 7 -32 20 -42
12 -8 18 -19 15 -24 -3 -6 -2 -12 4 -14 6 -2 6 -14 1 -33 -7 -22 -10 -25 -11
-10 -2 18 -3 18 -8 -3 -8 -27 -6 -27 -79 -6 -40 12 -58 13 -61 5 -3 -8 -9 -8
-23 -1 -15 8 -19 7 -19 -5 0 -8 5 -15 10 -15 6 0 10 -5 10 -11 0 -8 -4 -8 -14
1 -21 17 -61 9 -60 -13 2 -20 -12 -23 -19 -4 -4 10 -7 10 -18 0 -15 -15 -29
-17 -29 -4 0 5 10 11 22 14 12 4 20 8 17 11 -10 10 -49 -6 -49 -20 0 -8 -4
-14 -10 -14 -5 0 -10 -7 -10 -15 0 -11 -8 -13 -30 -8 -29 5 -44 -11 -17 -20 6
-2 0 -4 -15 -4 -16 0 -28 3 -28 8 0 5 -4 9 -10 9 -5 0 -10 -6 -10 -13 0 -7 -9
-13 -20 -13 -11 0 -20 4 -20 8 0 4 7 8 15 8 8 0 15 4 15 9 0 5 -14 9 -31 9
-17 -1 -35 5 -40 13 -7 11 -12 12 -29 2 -28 -18 -41 -16 -33 5 6 15 5 15 -10
4 -17 -14 -61 -7 -52 8 3 5 -5 12 -19 16 -13 3 -26 15 -29 26 -3 11 -9 18 -14
15 -4 -3 -28 6 -53 19 -25 13 -39 24 -32 24 7 0 10 5 7 10 -4 6 -11 8 -16 5
-5 -4 -9 -1 -9 5 0 8 -9 10 -26 6 -19 -5 -24 -4 -18 5 5 9 2 10 -11 5 -28 -10
-75 15 -75 41 0 27 -20 42 -21 16 -1 -10 -1 -21 0 -25 0 -5 -4 -8 -10 -8 -6 0
-8 9 -4 20 4 11 2 20 -4 20 -6 0 -11 -4 -11 -10 0 -5 -4 -10 -10 -10 -5 0 -10
7 -10 15 0 8 -5 15 -10 15 -6 0 -4 10 4 23 12 19 12 24 1 34 -8 7 -16 9 -20 4
-3 -5 1 -12 7 -14 7 -3 -3 -5 -22 -6 -28 0 -31 2 -15 9 12 5 14 9 6 9 -8 1
-25 11 -38 23 -19 17 -23 19 -17 5 7 -19 -11 -24 -20 -4 -5 10 -7 10 -12 0 -8
-19 -24 -16 -24 5 0 14 -9 17 -49 17 -27 0 -53 -3 -57 -7 -12 -12 -26 -9 -18
3 5 9 -1 10 -20 5 -15 -4 -26 -2 -26 4 0 5 5 10 10 10 6 0 10 5 10 11 0 8 -4
9 -13 0 -8 -6 -17 -8 -21 -4 -4 4 -4 -1 0 -12 7 -18 6 -18 -9 -6 -13 11 -15
17 -6 28 7 7 14 12 16 9 3 -2 21 7 40 20 41 28 53 30 53 9 0 -20 10 -19 26 3
12 15 12 15 7 -6 -5 -20 -3 -22 20 -13 14 5 28 7 31 3 4 -3 9 4 13 16 6 24 19
29 26 10 4 -10 6 -10 6 0 1 18 41 15 41 -3 0 -13 4 -14 20 -5 11 6 20 7 20 2
0 -4 16 -9 36 -10 28 -2 35 0 31 12 -4 10 4 15 25 18 l32 5 -23 -18 -23 -19
39 4 c40 4 93 24 93 36 0 4 13 13 30 20 32 13 60 49 60 77 0 9 10 28 23 41
l22 25 -27 -7 c-17 -4 -28 -2 -28 4 0 5 7 10 15 10 12 0 37 58 29 68 -1 2 -15
-5 -31 -15 -22 -14 -25 -14 -16 -2 7 9 9 20 5 24 -4 5 -1 5 6 1 6 -4 12 -2 12
3 0 6 -7 11 -17 11 -25 0 -9 11 21 14 15 2 36 12 48 22 20 18 21 18 15 1 -6
-16 -5 -17 15 -3 16 11 26 12 41 4 17 -9 19 -8 14 6 -4 9 -2 16 2 16 5 0 11
-4 13 -8 2 -5 26 -6 53 -2 28 4 39 8 25 9 -19 1 -13 6 26 19 52 18 91 21 111
9 6 -4 13 -1 16 5 3 10 7 10 17 1 7 -6 19 -9 26 -6 8 3 21 0 29 -7 13 -11 14
-10 9 4 -8 20 -4 20 46 0 40 -16 49 -27 30 -39 -18 -11 -11 -21 23 -33 51 -18
108 -14 149 12 35 21 43 41 13 29 -8 -2 -22 0 -32 5 -16 10 -15 12 10 21 32
12 59 36 51 44 -3 3 -12 3 -20 0 -12 -4 -14 0 -8 21 5 20 2 26 -10 26 -9 0
-16 4 -16 9 0 5 -25 15 -56 22 -47 11 -66 10 -129 -5 -40 -9 -106 -33 -146
-52 -40 -19 -79 -32 -86 -30 -8 3 -11 1 -8 -4 7 -11 -6 -13 -29 -4 -9 3 -16
11 -16 18 0 25 -58 46 -129 47 -39 1 -74 5 -77 10 -3 5 -10 7 -15 3 -5 -3 -37
19 -70 50 -33 31 -80 68 -106 82 -72 43 -229 75 -283 58z"/>
<path d="M1332 12137 c-17 -20 -3 -49 33 -73 40 -26 241 -10 292 23 27 18 30
38 6 48 -10 3 -85 9 -168 12 -129 5 -152 4 -163 -10z"/>
<path d="M8650 12089 c-42 -15 -76 -19 -143 -17 -51 1 -92 -3 -98 -9 -7 -7 -7
-23 1 -54 7 -24 12 -74 13 -110 0 -75 -11 -95 -80 -148 -42 -32 -43 -35 -44
-92 -1 -33 -1 -67 -2 -76 -1 -36 15 -71 31 -69 9 0 27 12 39 26 17 19 25 22
31 12 7 -10 15 -10 36 -2 15 5 48 10 73 10 25 0 63 5 84 11 31 10 48 9 91 -4
59 -18 256 -24 371 -12 74 8 131 -1 252 -40 89 -30 158 -38 190 -23 14 6 25
15 25 20 0 13 100 9 160 -7 99 -27 230 -10 230 29 0 7 15 38 33 69 l32 56 58
1 c31 0 65 -4 75 -9 9 -5 43 -17 75 -27 31 -10 57 -21 57 -25 0 -21 64 -19
132 4 88 30 207 44 237 28 20 -11 21 -10 21 58 l0 71 -26 -10 c-37 -14 -91
-12 -124 5 -105 54 -29 178 99 161 28 -4 51 -3 51 2 0 14 -122 31 -252 37 -64
2 -136 9 -160 14 -51 12 -271 16 -287 6 -6 -3 -11 -32 -11 -64 0 -42 -5 -65
-19 -82 -24 -32 -33 -61 -22 -78 16 -25 -9 -72 -46 -88 -32 -13 -38 -12 -78 7
-46 22 -78 60 -73 86 2 9 -4 20 -12 24 -22 12 -257 33 -270 25 -7 -4 -10 -17
-8 -29 4 -20 0 -22 -49 -24 -30 -1 -59 -3 -66 -5 -15 -3 -28 83 -27 190 l0 81
-51 11 c-27 6 -60 11 -71 11 -12 0 -46 14 -76 31 l-54 30 -64 -25 c-82 -33
-96 -33 -161 4 -29 17 -56 30 -60 30 -5 -1 -33 -10 -63 -21z"/>
<path d="M0 11713 c0 -205 3 -373 7 -373 4 0 17 9 29 21 16 15 40 22 95 26
125 10 121 7 140 104 20 101 33 136 62 167 18 20 22 35 22 96 0 70 -1 74 -35
107 -19 20 -54 70 -78 112 -48 84 -47 84 -179 104 l-63 9 0 -373z"/>
<path d="M1267 11171 c-27 -9 -53 -24 -58 -33 -12 -21 4 -102 31 -153 11 -21
20 -49 20 -61 0 -12 7 -38 16 -59 23 -57 13 -82 -36 -87 -22 -2 -41 0 -42 4
-5 11 -161 11 -191 -1 -36 -14 -44 -14 -49 1 -3 9 -8 9 -19 -2 -13 -11 -11
-17 17 -46 40 -43 41 -43 544 -84 143 -12 184 -13 263 -4 53 5 79 3 120 -11
42 -14 68 -16 121 -11 78 9 88 21 83 109 -3 52 -3 52 -67 94 -40 27 -68 54
-77 74 -14 32 -11 41 18 74 34 38 34 69 0 106 -58 65 -86 91 -106 98 -29 12
-234 -1 -258 -16 -14 -8 -139 -4 -151 6 -23 18 -130 19 -179 2z"/>
<path d="M7700 10925 c-14 -37 -4 -52 48 -71 26 -10 52 -21 57 -25 6 -4 33
-10 60 -13 86 -11 176 -27 295 -51 64 -13 167 -29 230 -35 63 -7 178 -23 255
-37 77 -14 165 -29 195 -33 30 -4 75 -13 100 -19 44 -10 188 -38 345 -67 121
-22 296 -46 330 -46 16 1 32 -3 35 -7 5 -8 100 -24 330 -57 52 -7 120 -20 150
-28 30 -8 99 -19 153 -25 54 -6 118 -16 141 -21 23 -5 79 -12 124 -16 l82 -7
0 97 c0 92 -1 97 -19 91 -11 -3 -46 1 -79 9 -33 9 -88 15 -123 15 -35 -1 -113
4 -174 11 -60 7 -141 13 -180 14 -38 1 -87 8 -108 15 -24 8 -56 10 -83 6 -28
-4 -64 -1 -97 8 -46 13 -129 23 -262 33 -22 1 -65 9 -96 17 -30 8 -68 13 -82
10 -15 -3 -56 2 -90 12 -34 10 -80 17 -102 16 -22 0 -68 8 -102 18 -33 10 -72
17 -85 14 -13 -3 -51 2 -84 11 -33 8 -75 13 -94 10 -23 -4 -53 1 -90 16 -35
14 -65 19 -85 16 -19 -4 -56 2 -94 14 -53 18 -67 19 -95 9 -29 -10 -41 -9 -90
12 -46 19 -60 21 -74 11 -34 -25 -44 -24 -105 5 -56 28 -64 29 -97 18 -32 -11
-40 -10 -100 22 -49 26 -73 33 -97 28 -21 -4 -36 -1 -46 10 -9 8 -32 15 -52
15 -29 0 -37 -5 -45 -25z"/>
</g>
</svg>
